G04 #@! TF.GenerationSoftware,KiCad,Pcbnew,(5.1.5)-1*
G04 #@! TF.CreationDate,2021-07-11T17:01:56-04:00*
G04 #@! TF.ProjectId,baboon38 v0.4,6261626f-6f6e-4333-9820-76302e342e6b,rev?*
G04 #@! TF.SameCoordinates,Original*
G04 #@! TF.FileFunction,Copper,L2,Bot*
G04 #@! TF.FilePolarity,Positive*
%FSLAX46Y46*%
G04 Gerber Fmt 4.6, Leading zero omitted, Abs format (unit mm)*
G04 Created by KiCad (PCBNEW (5.1.5)-1) date 2021-07-11 17:01:56*
%MOMM*%
%LPD*%
G04 APERTURE LIST*
%ADD10C,1.500000*%
%ADD11C,1.752600*%
%ADD12R,1.752600X1.752600*%
%ADD13C,1.200000*%
%ADD14C,0.100000*%
%ADD15C,1.600000*%
%ADD16C,0.800000*%
%ADD17C,0.250000*%
G04 APERTURE END LIST*
D10*
X164200000Y-21960000D03*
X164200000Y-27040000D03*
D11*
X157620000Y-20630000D03*
X142380000Y-48570000D03*
X157620000Y-23170000D03*
X157620000Y-25710000D03*
X157620000Y-28250000D03*
X157620000Y-30790000D03*
X157620000Y-33330000D03*
X157620000Y-35870000D03*
X157620000Y-38410000D03*
X157620000Y-40950000D03*
X157620000Y-43490000D03*
X157620000Y-46030000D03*
X157620000Y-48570000D03*
X142380000Y-46030000D03*
X142380000Y-43490000D03*
X142380000Y-40950000D03*
X142380000Y-38410000D03*
X142380000Y-35870000D03*
X142380000Y-33330000D03*
X142380000Y-30790000D03*
X142380000Y-28250000D03*
X142380000Y-25710000D03*
X142380000Y-23170000D03*
D12*
X142380000Y-20630000D03*
D13*
X220978800Y-69040811D02*
X221766646Y-68901893D01*
X215067856Y-72662254D02*
X215855702Y-72523336D01*
X37896265Y-54843600D02*
X38695777Y-54871520D01*
X31361550Y-57156951D02*
X32161062Y-57184871D01*
G04 #@! TA.AperFunction,Conductor*
D14*
G36*
X214287161Y-119055081D02*
G01*
X214537161Y-119488093D01*
X212025687Y-120938093D01*
X211775687Y-120505081D01*
X214287161Y-119055081D01*
G37*
G04 #@! TD.AperFunction*
G04 #@! TA.AperFunction,Conductor*
G36*
X218617289Y-116555081D02*
G01*
X218867289Y-116988093D01*
X216355815Y-118438093D01*
X216105815Y-118005081D01*
X218617289Y-116555081D01*
G37*
G04 #@! TD.AperFunction*
G04 #@! TA.AperFunction,ComponentPad*
G36*
X212236809Y-119603767D02*
G01*
X213036809Y-120989407D01*
X211651169Y-121789407D01*
X210851169Y-120403767D01*
X212236809Y-119603767D01*
G37*
G04 #@! TD.AperFunction*
D15*
X218698987Y-116796587D03*
G04 #@! TA.AperFunction,SMDPad,CuDef*
D14*
G36*
X216926744Y-117126972D02*
G01*
X217526744Y-118166202D01*
X216141104Y-118966202D01*
X215541104Y-117926972D01*
X216926744Y-117126972D01*
G37*
G04 #@! TD.AperFunction*
G04 #@! TA.AperFunction,SMDPad,CuDef*
G36*
X214501872Y-118526972D02*
G01*
X215101872Y-119566202D01*
X213716232Y-120366202D01*
X213116232Y-119326972D01*
X214501872Y-118526972D01*
G37*
G04 #@! TD.AperFunction*
G04 #@! TA.AperFunction,Conductor*
G36*
X201209441Y-130143427D02*
G01*
X201496230Y-130553003D01*
X199120689Y-132216375D01*
X198833900Y-131806799D01*
X201209441Y-130143427D01*
G37*
G04 #@! TD.AperFunction*
G04 #@! TA.AperFunction,Conductor*
G36*
X205305201Y-127275545D02*
G01*
X205591990Y-127685121D01*
X203216449Y-129348493D01*
X202929660Y-128938917D01*
X205305201Y-127275545D01*
G37*
G04 #@! TD.AperFunction*
G04 #@! TA.AperFunction,ComponentPad*
G36*
X199214712Y-130868725D02*
G01*
X200132435Y-132179368D01*
X198821792Y-133097091D01*
X197904069Y-131786448D01*
X199214712Y-130868725D01*
G37*
G04 #@! TD.AperFunction*
D15*
X205407638Y-127509012D03*
G04 #@! TA.AperFunction,SMDPad,CuDef*
D14*
G36*
X203670934Y-127992601D02*
G01*
X204359225Y-128975583D01*
X203048582Y-129893305D01*
X202360291Y-128910323D01*
X203670934Y-127992601D01*
G37*
G04 #@! TD.AperFunction*
G04 #@! TA.AperFunction,SMDPad,CuDef*
G36*
X201377308Y-129598615D02*
G01*
X202065599Y-130581597D01*
X200754956Y-131499319D01*
X200066665Y-130516337D01*
X201377308Y-129598615D01*
G37*
G04 #@! TD.AperFunction*
G04 #@! TA.AperFunction,Conductor*
G36*
X191938464Y-116784573D02*
G01*
X192225253Y-117194149D01*
X189849712Y-118857521D01*
X189562923Y-118447945D01*
X191938464Y-116784573D01*
G37*
G04 #@! TD.AperFunction*
G04 #@! TA.AperFunction,Conductor*
G36*
X196034224Y-113916691D02*
G01*
X196321013Y-114326267D01*
X193945472Y-115989639D01*
X193658683Y-115580063D01*
X196034224Y-113916691D01*
G37*
G04 #@! TD.AperFunction*
G04 #@! TA.AperFunction,ComponentPad*
G36*
X189943735Y-117509871D02*
G01*
X190861458Y-118820514D01*
X189550815Y-119738237D01*
X188633092Y-118427594D01*
X189943735Y-117509871D01*
G37*
G04 #@! TD.AperFunction*
D15*
X196136661Y-114150158D03*
G04 #@! TA.AperFunction,SMDPad,CuDef*
D14*
G36*
X194399957Y-114633747D02*
G01*
X195088248Y-115616729D01*
X193777605Y-116534451D01*
X193089314Y-115551469D01*
X194399957Y-114633747D01*
G37*
G04 #@! TD.AperFunction*
G04 #@! TA.AperFunction,SMDPad,CuDef*
G36*
X192106331Y-116239761D02*
G01*
X192794622Y-117222743D01*
X191483979Y-118140465D01*
X190795688Y-117157483D01*
X192106331Y-116239761D01*
G37*
G04 #@! TD.AperFunction*
G04 #@! TA.AperFunction,Conductor*
G36*
X206290055Y-104904240D02*
G01*
X206540055Y-105337252D01*
X204028581Y-106787252D01*
X203778581Y-106354240D01*
X206290055Y-104904240D01*
G37*
G04 #@! TD.AperFunction*
G04 #@! TA.AperFunction,Conductor*
G36*
X210620183Y-102404240D02*
G01*
X210870183Y-102837252D01*
X208358709Y-104287252D01*
X208108709Y-103854240D01*
X210620183Y-102404240D01*
G37*
G04 #@! TD.AperFunction*
G04 #@! TA.AperFunction,ComponentPad*
G36*
X204239703Y-105452926D02*
G01*
X205039703Y-106838566D01*
X203654063Y-107638566D01*
X202854063Y-106252926D01*
X204239703Y-105452926D01*
G37*
G04 #@! TD.AperFunction*
D15*
X210701881Y-102645746D03*
G04 #@! TA.AperFunction,SMDPad,CuDef*
D14*
G36*
X208929638Y-102976131D02*
G01*
X209529638Y-104015361D01*
X208143998Y-104815361D01*
X207543998Y-103776131D01*
X208929638Y-102976131D01*
G37*
G04 #@! TD.AperFunction*
G04 #@! TA.AperFunction,SMDPad,CuDef*
G36*
X206504766Y-104376131D02*
G01*
X207104766Y-105415361D01*
X205719126Y-106215361D01*
X205119126Y-105176131D01*
X206504766Y-104376131D01*
G37*
G04 #@! TD.AperFunction*
G04 #@! TA.AperFunction,Conductor*
G36*
X87708794Y-118370495D02*
G01*
X87458794Y-118803507D01*
X84947320Y-117353507D01*
X85197320Y-116920495D01*
X87708794Y-118370495D01*
G37*
G04 #@! TD.AperFunction*
G04 #@! TA.AperFunction,Conductor*
G36*
X92038922Y-120870495D02*
G01*
X91788922Y-121303507D01*
X89277448Y-119853507D01*
X89527448Y-119420495D01*
X92038922Y-120870495D01*
G37*
G04 #@! TD.AperFunction*
G04 #@! TA.AperFunction,ComponentPad*
G36*
X86208442Y-116869181D02*
G01*
X85408442Y-118254821D01*
X84022802Y-117454821D01*
X84822802Y-116069181D01*
X86208442Y-116869181D01*
G37*
G04 #@! TD.AperFunction*
D15*
X91870620Y-121062001D03*
G04 #@! TA.AperFunction,SMDPad,CuDef*
D14*
G36*
X90698377Y-119692386D02*
G01*
X90098377Y-120731616D01*
X88712737Y-119931616D01*
X89312737Y-118892386D01*
X90698377Y-119692386D01*
G37*
G04 #@! TD.AperFunction*
G04 #@! TA.AperFunction,SMDPad,CuDef*
G36*
X88273505Y-118292386D02*
G01*
X87673505Y-119331616D01*
X86287865Y-118531616D01*
X86887865Y-117492386D01*
X88273505Y-118292386D01*
G37*
G04 #@! TD.AperFunction*
G04 #@! TA.AperFunction,Conductor*
G36*
X100975851Y-129195995D02*
G01*
X100689062Y-129605571D01*
X98313521Y-127942199D01*
X98600310Y-127532623D01*
X100975851Y-129195995D01*
G37*
G04 #@! TD.AperFunction*
G04 #@! TA.AperFunction,Conductor*
G36*
X105071611Y-132063877D02*
G01*
X104784822Y-132473453D01*
X102409281Y-130810081D01*
X102696070Y-130400505D01*
X105071611Y-132063877D01*
G37*
G04 #@! TD.AperFunction*
G04 #@! TA.AperFunction,ComponentPad*
G36*
X99612056Y-127569630D02*
G01*
X98694333Y-128880273D01*
X97383690Y-127962550D01*
X98301413Y-126651907D01*
X99612056Y-127569630D01*
G37*
G04 #@! TD.AperFunction*
D15*
X104887259Y-132239986D03*
G04 #@! TA.AperFunction,SMDPad,CuDef*
D14*
G36*
X103838846Y-130773415D02*
G01*
X103150555Y-131756397D01*
X101839912Y-130838675D01*
X102528203Y-129855693D01*
X103838846Y-130773415D01*
G37*
G04 #@! TD.AperFunction*
G04 #@! TA.AperFunction,SMDPad,CuDef*
G36*
X101545220Y-129167401D02*
G01*
X100856929Y-130150383D01*
X99546286Y-129232661D01*
X100234577Y-128249679D01*
X101545220Y-129167401D01*
G37*
G04 #@! TD.AperFunction*
G04 #@! TA.AperFunction,Conductor*
G36*
X109974117Y-116162146D02*
G01*
X109687328Y-116571722D01*
X107311787Y-114908350D01*
X107598576Y-114498774D01*
X109974117Y-116162146D01*
G37*
G04 #@! TD.AperFunction*
G04 #@! TA.AperFunction,Conductor*
G36*
X114069877Y-119030028D02*
G01*
X113783088Y-119439604D01*
X111407547Y-117776232D01*
X111694336Y-117366656D01*
X114069877Y-119030028D01*
G37*
G04 #@! TD.AperFunction*
G04 #@! TA.AperFunction,ComponentPad*
G36*
X108610322Y-114535781D02*
G01*
X107692599Y-115846424D01*
X106381956Y-114928701D01*
X107299679Y-113618058D01*
X108610322Y-114535781D01*
G37*
G04 #@! TD.AperFunction*
D15*
X113885525Y-119206137D03*
G04 #@! TA.AperFunction,SMDPad,CuDef*
D14*
G36*
X112837112Y-117739566D02*
G01*
X112148821Y-118722548D01*
X110838178Y-117804826D01*
X111526469Y-116821844D01*
X112837112Y-117739566D01*
G37*
G04 #@! TD.AperFunction*
G04 #@! TA.AperFunction,SMDPad,CuDef*
G36*
X110543486Y-116133552D02*
G01*
X109855195Y-117116534D01*
X108544552Y-116198812D01*
X109232843Y-115215830D01*
X110543486Y-116133552D01*
G37*
G04 #@! TD.AperFunction*
G04 #@! TA.AperFunction,Conductor*
G36*
X96121807Y-104384030D02*
G01*
X95871807Y-104817042D01*
X93360333Y-103367042D01*
X93610333Y-102934030D01*
X96121807Y-104384030D01*
G37*
G04 #@! TD.AperFunction*
G04 #@! TA.AperFunction,Conductor*
G36*
X100451935Y-106884030D02*
G01*
X100201935Y-107317042D01*
X97690461Y-105867042D01*
X97940461Y-105434030D01*
X100451935Y-106884030D01*
G37*
G04 #@! TD.AperFunction*
G04 #@! TA.AperFunction,ComponentPad*
G36*
X94621455Y-102882716D02*
G01*
X93821455Y-104268356D01*
X92435815Y-103468356D01*
X93235815Y-102082716D01*
X94621455Y-102882716D01*
G37*
G04 #@! TD.AperFunction*
D15*
X100283633Y-107075536D03*
G04 #@! TA.AperFunction,SMDPad,CuDef*
D14*
G36*
X99111390Y-105705921D02*
G01*
X98511390Y-106745151D01*
X97125750Y-105945151D01*
X97725750Y-104905921D01*
X99111390Y-105705921D01*
G37*
G04 #@! TD.AperFunction*
G04 #@! TA.AperFunction,SMDPad,CuDef*
G36*
X96686518Y-104305921D02*
G01*
X96086518Y-105345151D01*
X94700878Y-104545151D01*
X95300878Y-103505921D01*
X96686518Y-104305921D01*
G37*
G04 #@! TD.AperFunction*
G04 #@! TA.AperFunction,Conductor*
G36*
X267911737Y-80163134D02*
G01*
X267929187Y-80662829D01*
X265030953Y-80764038D01*
X265013503Y-80264343D01*
X267911737Y-80163134D01*
G37*
G04 #@! TD.AperFunction*
G04 #@! TA.AperFunction,Conductor*
G36*
X272908691Y-79988636D02*
G01*
X272926141Y-80488331D01*
X270027907Y-80589540D01*
X270010457Y-80089845D01*
X272908691Y-79988636D01*
G37*
G04 #@! TD.AperFunction*
G04 #@! TA.AperFunction,ComponentPad*
G36*
X265843791Y-79685013D02*
G01*
X265899630Y-81284038D01*
X264300605Y-81339877D01*
X264244766Y-79740852D01*
X265843791Y-79685013D01*
G37*
G04 #@! TD.AperFunction*
D15*
X272867446Y-80240229D03*
G04 #@! TA.AperFunction,SMDPad,CuDef*
D14*
G36*
X271147542Y-79699924D02*
G01*
X271189421Y-80899193D01*
X269590396Y-80955032D01*
X269548517Y-79755763D01*
X271147542Y-79699924D01*
G37*
G04 #@! TD.AperFunction*
G04 #@! TA.AperFunction,SMDPad,CuDef*
G36*
X268349248Y-79797642D02*
G01*
X268391127Y-80996911D01*
X266792102Y-81052750D01*
X266750223Y-79853481D01*
X268349248Y-79797642D01*
G37*
G04 #@! TD.AperFunction*
G04 #@! TA.AperFunction,Conductor*
G36*
X251029216Y-73416505D02*
G01*
X251116040Y-73908909D01*
X248260098Y-74412489D01*
X248173274Y-73920085D01*
X251029216Y-73416505D01*
G37*
G04 #@! TD.AperFunction*
G04 #@! TA.AperFunction,Conductor*
G36*
X255953254Y-72548265D02*
G01*
X256040078Y-73040669D01*
X253184136Y-73544249D01*
X253097312Y-73051845D01*
X255953254Y-72548265D01*
G37*
G04 #@! TD.AperFunction*
G04 #@! TA.AperFunction,ComponentPad*
G36*
X248914854Y-73230840D02*
G01*
X249192691Y-74806533D01*
X247616998Y-75084370D01*
X247339161Y-73508677D01*
X248914854Y-73230840D01*
G37*
G04 #@! TD.AperFunction*
D15*
X255947426Y-72803149D03*
G04 #@! TA.AperFunction,SMDPad,CuDef*
D14*
G36*
X254169064Y-72507467D02*
G01*
X254377442Y-73689236D01*
X252801750Y-73967073D01*
X252593372Y-72785304D01*
X254169064Y-72507467D01*
G37*
G04 #@! TD.AperFunction*
G04 #@! TA.AperFunction,SMDPad,CuDef*
G36*
X251411602Y-72993681D02*
G01*
X251619980Y-74175450D01*
X250044288Y-74453287D01*
X249835910Y-73271518D01*
X251411602Y-72993681D01*
G37*
G04 #@! TD.AperFunction*
G04 #@! TA.AperFunction,Conductor*
G36*
X234046580Y-71328425D02*
G01*
X234133404Y-71820829D01*
X231277462Y-72324409D01*
X231190638Y-71832005D01*
X234046580Y-71328425D01*
G37*
G04 #@! TD.AperFunction*
G04 #@! TA.AperFunction,Conductor*
G36*
X238970618Y-70460185D02*
G01*
X239057442Y-70952589D01*
X236201500Y-71456169D01*
X236114676Y-70963765D01*
X238970618Y-70460185D01*
G37*
G04 #@! TD.AperFunction*
G04 #@! TA.AperFunction,ComponentPad*
G36*
X231932218Y-71142760D02*
G01*
X232210055Y-72718453D01*
X230634362Y-72996290D01*
X230356525Y-71420597D01*
X231932218Y-71142760D01*
G37*
G04 #@! TD.AperFunction*
D15*
X238964790Y-70715069D03*
G04 #@! TA.AperFunction,SMDPad,CuDef*
D14*
G36*
X237186428Y-70419387D02*
G01*
X237394806Y-71601156D01*
X235819114Y-71878993D01*
X235610736Y-70697224D01*
X237186428Y-70419387D01*
G37*
G04 #@! TD.AperFunction*
G04 #@! TA.AperFunction,SMDPad,CuDef*
G36*
X234428966Y-70905601D02*
G01*
X234637344Y-72087370D01*
X233061652Y-72365207D01*
X232853274Y-71183438D01*
X234428966Y-70905601D01*
G37*
G04 #@! TD.AperFunction*
G04 #@! TA.AperFunction,Conductor*
G36*
X219324166Y-78974377D02*
G01*
X219410990Y-79466781D01*
X216555048Y-79970361D01*
X216468224Y-79477957D01*
X219324166Y-78974377D01*
G37*
G04 #@! TD.AperFunction*
G04 #@! TA.AperFunction,Conductor*
G36*
X224248204Y-78106137D02*
G01*
X224335028Y-78598541D01*
X221479086Y-79102121D01*
X221392262Y-78609717D01*
X224248204Y-78106137D01*
G37*
G04 #@! TD.AperFunction*
G04 #@! TA.AperFunction,ComponentPad*
G36*
X217209804Y-78788712D02*
G01*
X217487641Y-80364405D01*
X215911948Y-80642242D01*
X215634111Y-79066549D01*
X217209804Y-78788712D01*
G37*
G04 #@! TD.AperFunction*
D15*
X224242376Y-78361021D03*
G04 #@! TA.AperFunction,SMDPad,CuDef*
D14*
G36*
X222464014Y-78065339D02*
G01*
X222672392Y-79247108D01*
X221096700Y-79524945D01*
X220888322Y-78343176D01*
X222464014Y-78065339D01*
G37*
G04 #@! TD.AperFunction*
G04 #@! TA.AperFunction,SMDPad,CuDef*
G36*
X219706552Y-78551553D02*
G01*
X219914930Y-79733322D01*
X218339238Y-80011159D01*
X218130860Y-78829390D01*
X219706552Y-78551553D01*
G37*
G04 #@! TD.AperFunction*
G04 #@! TA.AperFunction,Conductor*
G36*
X204110907Y-86571283D02*
G01*
X204240316Y-87054246D01*
X201439131Y-87804821D01*
X201309722Y-87321858D01*
X204110907Y-86571283D01*
G37*
G04 #@! TD.AperFunction*
G04 #@! TA.AperFunction,Conductor*
G36*
X208940537Y-85277187D02*
G01*
X209069946Y-85760150D01*
X206268761Y-86510725D01*
X206139352Y-86027762D01*
X208940537Y-85277187D01*
G37*
G04 #@! TD.AperFunction*
G04 #@! TA.AperFunction,ComponentPad*
G36*
X201988408Y-86570602D02*
G01*
X202402519Y-88116083D01*
X200857038Y-88530194D01*
X200442927Y-86984713D01*
X201988408Y-86570602D01*
G37*
G04 #@! TD.AperFunction*
D15*
X208956945Y-85531610D03*
G04 #@! TA.AperFunction,SMDPad,CuDef*
D14*
G36*
X207159579Y-85392046D02*
G01*
X207470162Y-86551157D01*
X205924681Y-86965268D01*
X205614098Y-85806157D01*
X207159579Y-85392046D01*
G37*
G04 #@! TD.AperFunction*
G04 #@! TA.AperFunction,SMDPad,CuDef*
G36*
X204454987Y-86116740D02*
G01*
X204765570Y-87275851D01*
X203220089Y-87689962D01*
X202909506Y-86530851D01*
X204454987Y-86116740D01*
G37*
G04 #@! TD.AperFunction*
G04 #@! TA.AperFunction,Conductor*
G36*
X98196457Y-86198159D02*
G01*
X98067048Y-86681122D01*
X95265863Y-85930547D01*
X95395272Y-85447584D01*
X98196457Y-86198159D01*
G37*
G04 #@! TD.AperFunction*
G04 #@! TA.AperFunction,Conductor*
G36*
X103026087Y-87492255D02*
G01*
X102896678Y-87975218D01*
X100095493Y-87224643D01*
X100224902Y-86741680D01*
X103026087Y-87492255D01*
G37*
G04 #@! TD.AperFunction*
G04 #@! TA.AperFunction,ComponentPad*
G36*
X96358660Y-85136322D02*
G01*
X95944549Y-86681803D01*
X94399068Y-86267692D01*
X94813179Y-84722211D01*
X96358660Y-85136322D01*
G37*
G04 #@! TD.AperFunction*
D15*
X102913086Y-87720795D03*
G04 #@! TA.AperFunction,SMDPad,CuDef*
D14*
G36*
X101426303Y-86701248D02*
G01*
X101115720Y-87860359D01*
X99570239Y-87446248D01*
X99880822Y-86287137D01*
X101426303Y-86701248D01*
G37*
G04 #@! TD.AperFunction*
G04 #@! TA.AperFunction,SMDPad,CuDef*
G36*
X98721711Y-85976554D02*
G01*
X98411128Y-87135665D01*
X96865647Y-86721554D01*
X97176230Y-85562443D01*
X98721711Y-85976554D01*
G37*
G04 #@! TD.AperFunction*
G04 #@! TA.AperFunction,Conductor*
G36*
X83043163Y-78771399D02*
G01*
X82956339Y-79263803D01*
X80100397Y-78760223D01*
X80187221Y-78267819D01*
X83043163Y-78771399D01*
G37*
G04 #@! TD.AperFunction*
G04 #@! TA.AperFunction,Conductor*
G36*
X87967201Y-79639639D02*
G01*
X87880377Y-80132043D01*
X85024435Y-79628463D01*
X85111259Y-79136059D01*
X87967201Y-79639639D01*
G37*
G04 #@! TD.AperFunction*
G04 #@! TA.AperFunction,ComponentPad*
G36*
X81119814Y-77873775D02*
G01*
X80841977Y-79449468D01*
X79266284Y-79171631D01*
X79544121Y-77595938D01*
X81119814Y-77873775D01*
G37*
G04 #@! TD.AperFunction*
D15*
X87874549Y-79877159D03*
G04 #@! TA.AperFunction,SMDPad,CuDef*
D14*
G36*
X86304565Y-78991072D02*
G01*
X86096187Y-80172841D01*
X84520495Y-79895004D01*
X84728873Y-78713235D01*
X86304565Y-78991072D01*
G37*
G04 #@! TD.AperFunction*
G04 #@! TA.AperFunction,SMDPad,CuDef*
G36*
X83547103Y-78504858D02*
G01*
X83338725Y-79686627D01*
X81763033Y-79408790D01*
X81971411Y-78227021D01*
X83547103Y-78504858D01*
G37*
G04 #@! TD.AperFunction*
G04 #@! TA.AperFunction,Conductor*
G36*
X67904843Y-70961069D02*
G01*
X67818019Y-71453473D01*
X64962077Y-70949893D01*
X65048901Y-70457489D01*
X67904843Y-70961069D01*
G37*
G04 #@! TD.AperFunction*
G04 #@! TA.AperFunction,Conductor*
G36*
X72828881Y-71829309D02*
G01*
X72742057Y-72321713D01*
X69886115Y-71818133D01*
X69972939Y-71325729D01*
X72828881Y-71829309D01*
G37*
G04 #@! TD.AperFunction*
G04 #@! TA.AperFunction,ComponentPad*
G36*
X65981494Y-70063445D02*
G01*
X65703657Y-71639138D01*
X64127964Y-71361301D01*
X64405801Y-69785608D01*
X65981494Y-70063445D01*
G37*
G04 #@! TD.AperFunction*
D15*
X72736229Y-72066829D03*
G04 #@! TA.AperFunction,SMDPad,CuDef*
D14*
G36*
X71166245Y-71180742D02*
G01*
X70957867Y-72362511D01*
X69382175Y-72084674D01*
X69590553Y-70902905D01*
X71166245Y-71180742D01*
G37*
G04 #@! TD.AperFunction*
G04 #@! TA.AperFunction,SMDPad,CuDef*
G36*
X68408783Y-70694528D02*
G01*
X68200405Y-71876297D01*
X66624713Y-71598460D01*
X66833091Y-70416691D01*
X68408783Y-70694528D01*
G37*
G04 #@! TD.AperFunction*
G04 #@! TA.AperFunction,Conductor*
G36*
X51238496Y-73222242D02*
G01*
X51151672Y-73714646D01*
X48295730Y-73211066D01*
X48382554Y-72718662D01*
X51238496Y-73222242D01*
G37*
G04 #@! TD.AperFunction*
G04 #@! TA.AperFunction,Conductor*
G36*
X56162534Y-74090482D02*
G01*
X56075710Y-74582886D01*
X53219768Y-74079306D01*
X53306592Y-73586902D01*
X56162534Y-74090482D01*
G37*
G04 #@! TD.AperFunction*
G04 #@! TA.AperFunction,ComponentPad*
G36*
X49315147Y-72324618D02*
G01*
X49037310Y-73900311D01*
X47461617Y-73622474D01*
X47739454Y-72046781D01*
X49315147Y-72324618D01*
G37*
G04 #@! TD.AperFunction*
D15*
X56069882Y-74328002D03*
G04 #@! TA.AperFunction,SMDPad,CuDef*
D14*
G36*
X54499898Y-73441915D02*
G01*
X54291520Y-74623684D01*
X52715828Y-74345847D01*
X52924206Y-73164078D01*
X54499898Y-73441915D01*
G37*
G04 #@! TD.AperFunction*
G04 #@! TA.AperFunction,SMDPad,CuDef*
G36*
X51742436Y-72955701D02*
G01*
X51534058Y-74137470D01*
X49958366Y-73859633D01*
X50166744Y-72677864D01*
X51742436Y-72955701D01*
G37*
G04 #@! TD.AperFunction*
G04 #@! TA.AperFunction,Conductor*
G36*
X33715361Y-80095179D02*
G01*
X33689193Y-80594494D01*
X30793167Y-80442719D01*
X30819335Y-79943404D01*
X33715361Y-80095179D01*
G37*
G04 #@! TD.AperFunction*
G04 #@! TA.AperFunction,Conductor*
G36*
X38708509Y-80356859D02*
G01*
X38682341Y-80856174D01*
X35786315Y-80704399D01*
X35812483Y-80205084D01*
X38708509Y-80356859D01*
G37*
G04 #@! TD.AperFunction*
G04 #@! TA.AperFunction,ComponentPad*
G36*
X31696955Y-79438644D02*
G01*
X31613218Y-81036451D01*
X30015411Y-80952714D01*
X30099148Y-79354907D01*
X31696955Y-79438644D01*
G37*
G04 #@! TD.AperFunction*
D15*
X38645493Y-80603899D03*
G04 #@! TA.AperFunction,SMDPad,CuDef*
D14*
G36*
X36979224Y-79915750D02*
G01*
X36916421Y-81114105D01*
X35318614Y-81030368D01*
X35381417Y-79832013D01*
X36979224Y-79915750D01*
G37*
G04 #@! TD.AperFunction*
G04 #@! TA.AperFunction,SMDPad,CuDef*
G36*
X34183062Y-79769210D02*
G01*
X34120259Y-80967565D01*
X32522452Y-80883828D01*
X32585255Y-79685473D01*
X34183062Y-79769210D01*
G37*
G04 #@! TD.AperFunction*
G04 #@! TA.AperFunction,Conductor*
G36*
X267638844Y-63776998D02*
G01*
X267656294Y-64276693D01*
X264758060Y-64377902D01*
X264740610Y-63878207D01*
X267638844Y-63776998D01*
G37*
G04 #@! TD.AperFunction*
G04 #@! TA.AperFunction,Conductor*
G36*
X272635798Y-63602500D02*
G01*
X272653248Y-64102195D01*
X269755014Y-64203404D01*
X269737564Y-63703709D01*
X272635798Y-63602500D01*
G37*
G04 #@! TD.AperFunction*
G04 #@! TA.AperFunction,ComponentPad*
G36*
X265570898Y-63298877D02*
G01*
X265626737Y-64897902D01*
X264027712Y-64953741D01*
X263971873Y-63354716D01*
X265570898Y-63298877D01*
G37*
G04 #@! TD.AperFunction*
D15*
X272594553Y-63854093D03*
G04 #@! TA.AperFunction,SMDPad,CuDef*
D14*
G36*
X270874649Y-63313788D02*
G01*
X270916528Y-64513057D01*
X269317503Y-64568896D01*
X269275624Y-63369627D01*
X270874649Y-63313788D01*
G37*
G04 #@! TD.AperFunction*
G04 #@! TA.AperFunction,SMDPad,CuDef*
G36*
X268076355Y-63411506D02*
G01*
X268118234Y-64610775D01*
X266519209Y-64666614D01*
X266477330Y-63467345D01*
X268076355Y-63411506D01*
G37*
G04 #@! TD.AperFunction*
G04 #@! TA.AperFunction,Conductor*
G36*
X248404065Y-57527244D02*
G01*
X248490889Y-58019648D01*
X245634947Y-58523228D01*
X245548123Y-58030824D01*
X248404065Y-57527244D01*
G37*
G04 #@! TD.AperFunction*
G04 #@! TA.AperFunction,Conductor*
G36*
X253328103Y-56659004D02*
G01*
X253414927Y-57151408D01*
X250558985Y-57654988D01*
X250472161Y-57162584D01*
X253328103Y-56659004D01*
G37*
G04 #@! TD.AperFunction*
G04 #@! TA.AperFunction,ComponentPad*
G36*
X246289703Y-57341579D02*
G01*
X246567540Y-58917272D01*
X244991847Y-59195109D01*
X244714010Y-57619416D01*
X246289703Y-57341579D01*
G37*
G04 #@! TD.AperFunction*
D15*
X253322275Y-56913888D03*
G04 #@! TA.AperFunction,SMDPad,CuDef*
D14*
G36*
X251543913Y-56618206D02*
G01*
X251752291Y-57799975D01*
X250176599Y-58077812D01*
X249968221Y-56896043D01*
X251543913Y-56618206D01*
G37*
G04 #@! TD.AperFunction*
G04 #@! TA.AperFunction,SMDPad,CuDef*
G36*
X248786451Y-57104420D02*
G01*
X248994829Y-58286189D01*
X247419137Y-58564026D01*
X247210759Y-57382257D01*
X248786451Y-57104420D01*
G37*
G04 #@! TD.AperFunction*
G04 #@! TA.AperFunction,Conductor*
G36*
X231529765Y-55348260D02*
G01*
X231616589Y-55840664D01*
X228760647Y-56344244D01*
X228673823Y-55851840D01*
X231529765Y-55348260D01*
G37*
G04 #@! TD.AperFunction*
G04 #@! TA.AperFunction,Conductor*
G36*
X236453803Y-54480020D02*
G01*
X236540627Y-54972424D01*
X233684685Y-55476004D01*
X233597861Y-54983600D01*
X236453803Y-54480020D01*
G37*
G04 #@! TD.AperFunction*
G04 #@! TA.AperFunction,ComponentPad*
G36*
X229415403Y-55162595D02*
G01*
X229693240Y-56738288D01*
X228117547Y-57016125D01*
X227839710Y-55440432D01*
X229415403Y-55162595D01*
G37*
G04 #@! TD.AperFunction*
D15*
X236447975Y-54734904D03*
G04 #@! TA.AperFunction,SMDPad,CuDef*
D14*
G36*
X234669613Y-54439222D02*
G01*
X234877991Y-55620991D01*
X233302299Y-55898828D01*
X233093921Y-54717059D01*
X234669613Y-54439222D01*
G37*
G04 #@! TD.AperFunction*
G04 #@! TA.AperFunction,SMDPad,CuDef*
G36*
X231912151Y-54925436D02*
G01*
X232120529Y-56107205D01*
X230544837Y-56385042D01*
X230336459Y-55203273D01*
X231912151Y-54925436D01*
G37*
G04 #@! TD.AperFunction*
G04 #@! TA.AperFunction,Conductor*
G36*
X216517210Y-62868447D02*
G01*
X216604034Y-63360851D01*
X213748092Y-63864431D01*
X213661268Y-63372027D01*
X216517210Y-62868447D01*
G37*
G04 #@! TD.AperFunction*
G04 #@! TA.AperFunction,Conductor*
G36*
X221441248Y-62000207D02*
G01*
X221528072Y-62492611D01*
X218672130Y-62996191D01*
X218585306Y-62503787D01*
X221441248Y-62000207D01*
G37*
G04 #@! TD.AperFunction*
G04 #@! TA.AperFunction,ComponentPad*
G36*
X214402848Y-62682782D02*
G01*
X214680685Y-64258475D01*
X213104992Y-64536312D01*
X212827155Y-62960619D01*
X214402848Y-62682782D01*
G37*
G04 #@! TD.AperFunction*
D15*
X221435420Y-62255091D03*
G04 #@! TA.AperFunction,SMDPad,CuDef*
D14*
G36*
X219657058Y-61959409D02*
G01*
X219865436Y-63141178D01*
X218289744Y-63419015D01*
X218081366Y-62237246D01*
X219657058Y-61959409D01*
G37*
G04 #@! TD.AperFunction*
G04 #@! TA.AperFunction,SMDPad,CuDef*
G36*
X216899596Y-62445623D02*
G01*
X217107974Y-63627392D01*
X215532282Y-63905229D01*
X215323904Y-62723460D01*
X216899596Y-62445623D01*
G37*
G04 #@! TD.AperFunction*
G04 #@! TA.AperFunction,Conductor*
G36*
X199739933Y-71131574D02*
G01*
X199869342Y-71614537D01*
X197068157Y-72365112D01*
X196938748Y-71882149D01*
X199739933Y-71131574D01*
G37*
G04 #@! TD.AperFunction*
G04 #@! TA.AperFunction,Conductor*
G36*
X204569563Y-69837478D02*
G01*
X204698972Y-70320441D01*
X201897787Y-71071016D01*
X201768378Y-70588053D01*
X204569563Y-69837478D01*
G37*
G04 #@! TD.AperFunction*
G04 #@! TA.AperFunction,ComponentPad*
G36*
X197617434Y-71130893D02*
G01*
X198031545Y-72676374D01*
X196486064Y-73090485D01*
X196071953Y-71545004D01*
X197617434Y-71130893D01*
G37*
G04 #@! TD.AperFunction*
D15*
X204585971Y-70091901D03*
G04 #@! TA.AperFunction,SMDPad,CuDef*
D14*
G36*
X202788605Y-69952337D02*
G01*
X203099188Y-71111448D01*
X201553707Y-71525559D01*
X201243124Y-70366448D01*
X202788605Y-69952337D01*
G37*
G04 #@! TD.AperFunction*
G04 #@! TA.AperFunction,SMDPad,CuDef*
G36*
X200084013Y-70677031D02*
G01*
X200394596Y-71836142D01*
X198849115Y-72250253D01*
X198538532Y-71091142D01*
X200084013Y-70677031D01*
G37*
G04 #@! TD.AperFunction*
G04 #@! TA.AperFunction,Conductor*
G36*
X101960998Y-70711125D02*
G01*
X101831589Y-71194088D01*
X99030404Y-70443513D01*
X99159813Y-69960550D01*
X101960998Y-70711125D01*
G37*
G04 #@! TD.AperFunction*
G04 #@! TA.AperFunction,Conductor*
G36*
X106790628Y-72005221D02*
G01*
X106661219Y-72488184D01*
X103860034Y-71737609D01*
X103989443Y-71254646D01*
X106790628Y-72005221D01*
G37*
G04 #@! TD.AperFunction*
G04 #@! TA.AperFunction,ComponentPad*
G36*
X100123201Y-69649288D02*
G01*
X99709090Y-71194769D01*
X98163609Y-70780658D01*
X98577720Y-69235177D01*
X100123201Y-69649288D01*
G37*
G04 #@! TD.AperFunction*
D15*
X106677627Y-72233761D03*
G04 #@! TA.AperFunction,SMDPad,CuDef*
D14*
G36*
X105190844Y-71214214D02*
G01*
X104880261Y-72373325D01*
X103334780Y-71959214D01*
X103645363Y-70800103D01*
X105190844Y-71214214D01*
G37*
G04 #@! TD.AperFunction*
G04 #@! TA.AperFunction,SMDPad,CuDef*
G36*
X102486252Y-70489520D02*
G01*
X102175669Y-71648631D01*
X100630188Y-71234520D01*
X100940771Y-70075409D01*
X102486252Y-70489520D01*
G37*
G04 #@! TD.AperFunction*
G04 #@! TA.AperFunction,Conductor*
G36*
X85858838Y-62765087D02*
G01*
X85772014Y-63257491D01*
X82916072Y-62753911D01*
X83002896Y-62261507D01*
X85858838Y-62765087D01*
G37*
G04 #@! TD.AperFunction*
G04 #@! TA.AperFunction,Conductor*
G36*
X90782876Y-63633327D02*
G01*
X90696052Y-64125731D01*
X87840110Y-63622151D01*
X87926934Y-63129747D01*
X90782876Y-63633327D01*
G37*
G04 #@! TD.AperFunction*
G04 #@! TA.AperFunction,ComponentPad*
G36*
X83935489Y-61867463D02*
G01*
X83657652Y-63443156D01*
X82081959Y-63165319D01*
X82359796Y-61589626D01*
X83935489Y-61867463D01*
G37*
G04 #@! TD.AperFunction*
D15*
X90690224Y-63870847D03*
G04 #@! TA.AperFunction,SMDPad,CuDef*
D14*
G36*
X89120240Y-62984760D02*
G01*
X88911862Y-64166529D01*
X87336170Y-63888692D01*
X87544548Y-62706923D01*
X89120240Y-62984760D01*
G37*
G04 #@! TD.AperFunction*
G04 #@! TA.AperFunction,SMDPad,CuDef*
G36*
X86362778Y-62498546D02*
G01*
X86154400Y-63680315D01*
X84578708Y-63402478D01*
X84787086Y-62220709D01*
X86362778Y-62498546D01*
G37*
G04 #@! TD.AperFunction*
G04 #@! TA.AperFunction,Conductor*
G36*
X70820135Y-54946043D02*
G01*
X70733311Y-55438447D01*
X67877369Y-54934867D01*
X67964193Y-54442463D01*
X70820135Y-54946043D01*
G37*
G04 #@! TD.AperFunction*
G04 #@! TA.AperFunction,Conductor*
G36*
X75744173Y-55814283D02*
G01*
X75657349Y-56306687D01*
X72801407Y-55803107D01*
X72888231Y-55310703D01*
X75744173Y-55814283D01*
G37*
G04 #@! TD.AperFunction*
G04 #@! TA.AperFunction,ComponentPad*
G36*
X68896786Y-54048419D02*
G01*
X68618949Y-55624112D01*
X67043256Y-55346275D01*
X67321093Y-53770582D01*
X68896786Y-54048419D01*
G37*
G04 #@! TD.AperFunction*
D15*
X75651521Y-56051803D03*
G04 #@! TA.AperFunction,SMDPad,CuDef*
D14*
G36*
X74081537Y-55165716D02*
G01*
X73873159Y-56347485D01*
X72297467Y-56069648D01*
X72505845Y-54887879D01*
X74081537Y-55165716D01*
G37*
G04 #@! TD.AperFunction*
G04 #@! TA.AperFunction,SMDPad,CuDef*
G36*
X71324075Y-54679502D02*
G01*
X71115697Y-55861271D01*
X69540005Y-55583434D01*
X69748383Y-54401665D01*
X71324075Y-54679502D01*
G37*
G04 #@! TD.AperFunction*
G04 #@! TA.AperFunction,Conductor*
G36*
X53837500Y-57034123D02*
G01*
X53750676Y-57526527D01*
X50894734Y-57022947D01*
X50981558Y-56530543D01*
X53837500Y-57034123D01*
G37*
G04 #@! TD.AperFunction*
G04 #@! TA.AperFunction,Conductor*
G36*
X58761538Y-57902363D02*
G01*
X58674714Y-58394767D01*
X55818772Y-57891187D01*
X55905596Y-57398783D01*
X58761538Y-57902363D01*
G37*
G04 #@! TD.AperFunction*
G04 #@! TA.AperFunction,ComponentPad*
G36*
X51914151Y-56136499D02*
G01*
X51636314Y-57712192D01*
X50060621Y-57434355D01*
X50338458Y-55858662D01*
X51914151Y-56136499D01*
G37*
G04 #@! TD.AperFunction*
D15*
X58668886Y-58139883D03*
G04 #@! TA.AperFunction,SMDPad,CuDef*
D14*
G36*
X57098902Y-57253796D02*
G01*
X56890524Y-58435565D01*
X55314832Y-58157728D01*
X55523210Y-56975959D01*
X57098902Y-57253796D01*
G37*
G04 #@! TD.AperFunction*
G04 #@! TA.AperFunction,SMDPad,CuDef*
G36*
X54341440Y-56767582D02*
G01*
X54133062Y-57949351D01*
X52557370Y-57671514D01*
X52765748Y-56489745D01*
X54341440Y-56767582D01*
G37*
G04 #@! TD.AperFunction*
G04 #@! TA.AperFunction,Conductor*
G36*
X34495067Y-63765083D02*
G01*
X34468899Y-64264398D01*
X31572873Y-64112623D01*
X31599041Y-63613308D01*
X34495067Y-63765083D01*
G37*
G04 #@! TD.AperFunction*
G04 #@! TA.AperFunction,Conductor*
G36*
X39488215Y-64026763D02*
G01*
X39462047Y-64526078D01*
X36566021Y-64374303D01*
X36592189Y-63874988D01*
X39488215Y-64026763D01*
G37*
G04 #@! TD.AperFunction*
G04 #@! TA.AperFunction,ComponentPad*
G36*
X32476661Y-63108548D02*
G01*
X32392924Y-64706355D01*
X30795117Y-64622618D01*
X30878854Y-63024811D01*
X32476661Y-63108548D01*
G37*
G04 #@! TD.AperFunction*
D15*
X39425199Y-64273803D03*
G04 #@! TA.AperFunction,SMDPad,CuDef*
D14*
G36*
X37758930Y-63585654D02*
G01*
X37696127Y-64784009D01*
X36098320Y-64700272D01*
X36161123Y-63501917D01*
X37758930Y-63585654D01*
G37*
G04 #@! TD.AperFunction*
G04 #@! TA.AperFunction,SMDPad,CuDef*
G36*
X34962768Y-63439114D02*
G01*
X34899965Y-64637469D01*
X33302158Y-64553732D01*
X33364961Y-63355377D01*
X34962768Y-63439114D01*
G37*
G04 #@! TD.AperFunction*
G04 #@! TA.AperFunction,Conductor*
G36*
X267205323Y-48079478D02*
G01*
X267222773Y-48579173D01*
X264324539Y-48680382D01*
X264307089Y-48180687D01*
X267205323Y-48079478D01*
G37*
G04 #@! TD.AperFunction*
G04 #@! TA.AperFunction,Conductor*
G36*
X272202277Y-47904980D02*
G01*
X272219727Y-48404675D01*
X269321493Y-48505884D01*
X269304043Y-48006189D01*
X272202277Y-47904980D01*
G37*
G04 #@! TD.AperFunction*
G04 #@! TA.AperFunction,ComponentPad*
G36*
X265137377Y-47601357D02*
G01*
X265193216Y-49200382D01*
X263594191Y-49256221D01*
X263538352Y-47657196D01*
X265137377Y-47601357D01*
G37*
G04 #@! TD.AperFunction*
D15*
X272161032Y-48156573D03*
G04 #@! TA.AperFunction,SMDPad,CuDef*
D14*
G36*
X270441128Y-47616268D02*
G01*
X270483007Y-48815537D01*
X268883982Y-48871376D01*
X268842103Y-47672107D01*
X270441128Y-47616268D01*
G37*
G04 #@! TD.AperFunction*
G04 #@! TA.AperFunction,SMDPad,CuDef*
G36*
X267642834Y-47713986D02*
G01*
X267684713Y-48913255D01*
X266085688Y-48969094D01*
X266043809Y-47769825D01*
X267642834Y-47713986D01*
G37*
G04 #@! TD.AperFunction*
G04 #@! TA.AperFunction,Conductor*
G36*
X245272103Y-41694026D02*
G01*
X245358927Y-42186430D01*
X242502985Y-42690010D01*
X242416161Y-42197606D01*
X245272103Y-41694026D01*
G37*
G04 #@! TD.AperFunction*
G04 #@! TA.AperFunction,Conductor*
G36*
X250196141Y-40825786D02*
G01*
X250282965Y-41318190D01*
X247427023Y-41821770D01*
X247340199Y-41329366D01*
X250196141Y-40825786D01*
G37*
G04 #@! TD.AperFunction*
G04 #@! TA.AperFunction,ComponentPad*
G36*
X243157741Y-41508361D02*
G01*
X243435578Y-43084054D01*
X241859885Y-43361891D01*
X241582048Y-41786198D01*
X243157741Y-41508361D01*
G37*
G04 #@! TD.AperFunction*
D15*
X250190313Y-41080670D03*
G04 #@! TA.AperFunction,SMDPad,CuDef*
D14*
G36*
X248411951Y-40784988D02*
G01*
X248620329Y-41966757D01*
X247044637Y-42244594D01*
X246836259Y-41062825D01*
X248411951Y-40784988D01*
G37*
G04 #@! TD.AperFunction*
G04 #@! TA.AperFunction,SMDPad,CuDef*
G36*
X245654489Y-41271202D02*
G01*
X245862867Y-42452971D01*
X244287175Y-42730808D01*
X244078797Y-41549039D01*
X245654489Y-41271202D01*
G37*
G04 #@! TD.AperFunction*
G04 #@! TA.AperFunction,Conductor*
G36*
X228705376Y-39441568D02*
G01*
X228792200Y-39933972D01*
X225936258Y-40437552D01*
X225849434Y-39945148D01*
X228705376Y-39441568D01*
G37*
G04 #@! TD.AperFunction*
G04 #@! TA.AperFunction,Conductor*
G36*
X233629414Y-38573328D02*
G01*
X233716238Y-39065732D01*
X230860296Y-39569312D01*
X230773472Y-39076908D01*
X233629414Y-38573328D01*
G37*
G04 #@! TD.AperFunction*
G04 #@! TA.AperFunction,ComponentPad*
G36*
X226591014Y-39255903D02*
G01*
X226868851Y-40831596D01*
X225293158Y-41109433D01*
X225015321Y-39533740D01*
X226591014Y-39255903D01*
G37*
G04 #@! TD.AperFunction*
D15*
X233623586Y-38828212D03*
G04 #@! TA.AperFunction,SMDPad,CuDef*
D14*
G36*
X231845224Y-38532530D02*
G01*
X232053602Y-39714299D01*
X230477910Y-39992136D01*
X230269532Y-38810367D01*
X231845224Y-38532530D01*
G37*
G04 #@! TD.AperFunction*
G04 #@! TA.AperFunction,SMDPad,CuDef*
G36*
X229087762Y-39018744D02*
G01*
X229296140Y-40200513D01*
X227720448Y-40478350D01*
X227512070Y-39296581D01*
X229087762Y-39018744D01*
G37*
G04 #@! TD.AperFunction*
G04 #@! TA.AperFunction,Conductor*
G36*
X213467437Y-47243182D02*
G01*
X213554261Y-47735586D01*
X210698319Y-48239166D01*
X210611495Y-47746762D01*
X213467437Y-47243182D01*
G37*
G04 #@! TD.AperFunction*
G04 #@! TA.AperFunction,Conductor*
G36*
X218391475Y-46374942D02*
G01*
X218478299Y-46867346D01*
X215622357Y-47370926D01*
X215535533Y-46878522D01*
X218391475Y-46374942D01*
G37*
G04 #@! TD.AperFunction*
G04 #@! TA.AperFunction,ComponentPad*
G36*
X211353075Y-47057517D02*
G01*
X211630912Y-48633210D01*
X210055219Y-48911047D01*
X209777382Y-47335354D01*
X211353075Y-47057517D01*
G37*
G04 #@! TD.AperFunction*
D15*
X218385647Y-46629826D03*
G04 #@! TA.AperFunction,SMDPad,CuDef*
D14*
G36*
X216607285Y-46334144D02*
G01*
X216815663Y-47515913D01*
X215239971Y-47793750D01*
X215031593Y-46611981D01*
X216607285Y-46334144D01*
G37*
G04 #@! TD.AperFunction*
G04 #@! TA.AperFunction,SMDPad,CuDef*
G36*
X213849823Y-46820358D02*
G01*
X214058201Y-48002127D01*
X212482509Y-48279964D01*
X212274131Y-47098195D01*
X213849823Y-46820358D01*
G37*
G04 #@! TD.AperFunction*
G04 #@! TA.AperFunction,Conductor*
G36*
X195957961Y-55843779D02*
G01*
X196087370Y-56326742D01*
X193286185Y-57077317D01*
X193156776Y-56594354D01*
X195957961Y-55843779D01*
G37*
G04 #@! TD.AperFunction*
G04 #@! TA.AperFunction,Conductor*
G36*
X200787591Y-54549683D02*
G01*
X200917000Y-55032646D01*
X198115815Y-55783221D01*
X197986406Y-55300258D01*
X200787591Y-54549683D01*
G37*
G04 #@! TD.AperFunction*
G04 #@! TA.AperFunction,ComponentPad*
G36*
X193835462Y-55843098D02*
G01*
X194249573Y-57388579D01*
X192704092Y-57802690D01*
X192289981Y-56257209D01*
X193835462Y-55843098D01*
G37*
G04 #@! TD.AperFunction*
D15*
X200803999Y-54804106D03*
G04 #@! TA.AperFunction,SMDPad,CuDef*
D14*
G36*
X199006633Y-54664542D02*
G01*
X199317216Y-55823653D01*
X197771735Y-56237764D01*
X197461152Y-55078653D01*
X199006633Y-54664542D01*
G37*
G04 #@! TD.AperFunction*
G04 #@! TA.AperFunction,SMDPad,CuDef*
G36*
X196302041Y-55389236D02*
G01*
X196612624Y-56548347D01*
X195067143Y-56962458D01*
X194756560Y-55803347D01*
X196302041Y-55389236D01*
G37*
G04 #@! TD.AperFunction*
G04 #@! TA.AperFunction,Conductor*
G36*
X106414160Y-55063463D02*
G01*
X106284751Y-55546426D01*
X103483566Y-54795851D01*
X103612975Y-54312888D01*
X106414160Y-55063463D01*
G37*
G04 #@! TD.AperFunction*
G04 #@! TA.AperFunction,Conductor*
G36*
X111243790Y-56357559D02*
G01*
X111114381Y-56840522D01*
X108313196Y-56089947D01*
X108442605Y-55606984D01*
X111243790Y-56357559D01*
G37*
G04 #@! TD.AperFunction*
G04 #@! TA.AperFunction,ComponentPad*
G36*
X104576363Y-54001626D02*
G01*
X104162252Y-55547107D01*
X102616771Y-55132996D01*
X103030882Y-53587515D01*
X104576363Y-54001626D01*
G37*
G04 #@! TD.AperFunction*
D15*
X111130789Y-56586099D03*
G04 #@! TA.AperFunction,SMDPad,CuDef*
D14*
G36*
X109644006Y-55566552D02*
G01*
X109333423Y-56725663D01*
X107787942Y-56311552D01*
X108098525Y-55152441D01*
X109644006Y-55566552D01*
G37*
G04 #@! TD.AperFunction*
G04 #@! TA.AperFunction,SMDPad,CuDef*
G36*
X106939414Y-54841858D02*
G01*
X106628831Y-56000969D01*
X105083350Y-55586858D01*
X105393933Y-54427747D01*
X106939414Y-54841858D01*
G37*
G04 #@! TD.AperFunction*
G04 #@! TA.AperFunction,Conductor*
G36*
X88293462Y-46992878D02*
G01*
X88206638Y-47485282D01*
X85350696Y-46981702D01*
X85437520Y-46489298D01*
X88293462Y-46992878D01*
G37*
G04 #@! TD.AperFunction*
G04 #@! TA.AperFunction,Conductor*
G36*
X93217500Y-47861118D02*
G01*
X93130676Y-48353522D01*
X90274734Y-47849942D01*
X90361558Y-47357538D01*
X93217500Y-47861118D01*
G37*
G04 #@! TD.AperFunction*
G04 #@! TA.AperFunction,ComponentPad*
G36*
X86370113Y-46095254D02*
G01*
X86092276Y-47670947D01*
X84516583Y-47393110D01*
X84794420Y-45817417D01*
X86370113Y-46095254D01*
G37*
G04 #@! TD.AperFunction*
D15*
X93124848Y-48098638D03*
G04 #@! TA.AperFunction,SMDPad,CuDef*
D14*
G36*
X91554864Y-47212551D02*
G01*
X91346486Y-48394320D01*
X89770794Y-48116483D01*
X89979172Y-46934714D01*
X91554864Y-47212551D01*
G37*
G04 #@! TD.AperFunction*
G04 #@! TA.AperFunction,SMDPad,CuDef*
G36*
X88797402Y-46726337D02*
G01*
X88589024Y-47908106D01*
X87013332Y-47630269D01*
X87221710Y-46448500D01*
X88797402Y-46726337D01*
G37*
G04 #@! TD.AperFunction*
G04 #@! TA.AperFunction,Conductor*
G36*
X73067316Y-39524956D02*
G01*
X72997729Y-40020090D01*
X70125952Y-39616488D01*
X70195539Y-39121354D01*
X73067316Y-39524956D01*
G37*
G04 #@! TD.AperFunction*
G04 #@! TA.AperFunction,Conductor*
G36*
X78018656Y-40220822D02*
G01*
X77949069Y-40715956D01*
X75077292Y-40312354D01*
X75146879Y-39817220D01*
X78018656Y-40220822D01*
G37*
G04 #@! TD.AperFunction*
G04 #@! TA.AperFunction,ComponentPad*
G36*
X71113812Y-38695004D02*
G01*
X70891135Y-40279433D01*
X69306706Y-40056756D01*
X69529383Y-38472327D01*
X71113812Y-38695004D01*
G37*
G04 #@! TD.AperFunction*
D15*
X77934349Y-40461430D03*
G04 #@! TA.AperFunction,SMDPad,CuDef*
D14*
G36*
X76334397Y-39630675D02*
G01*
X76167390Y-40818996D01*
X74582961Y-40596319D01*
X74749968Y-39407998D01*
X76334397Y-39630675D01*
G37*
G04 #@! TD.AperFunction*
G04 #@! TA.AperFunction,SMDPad,CuDef*
G36*
X73561647Y-39240991D02*
G01*
X73394640Y-40429312D01*
X71810211Y-40206635D01*
X71977218Y-39018314D01*
X73561647Y-39240991D01*
G37*
G04 #@! TD.AperFunction*
G04 #@! TA.AperFunction,Conductor*
G36*
X56778938Y-41317955D02*
G01*
X56692114Y-41810359D01*
X53836172Y-41306779D01*
X53922996Y-40814375D01*
X56778938Y-41317955D01*
G37*
G04 #@! TD.AperFunction*
G04 #@! TA.AperFunction,Conductor*
G36*
X61702976Y-42186195D02*
G01*
X61616152Y-42678599D01*
X58760210Y-42175019D01*
X58847034Y-41682615D01*
X61702976Y-42186195D01*
G37*
G04 #@! TD.AperFunction*
G04 #@! TA.AperFunction,ComponentPad*
G36*
X54855589Y-40420331D02*
G01*
X54577752Y-41996024D01*
X53002059Y-41718187D01*
X53279896Y-40142494D01*
X54855589Y-40420331D01*
G37*
G04 #@! TD.AperFunction*
D15*
X61610324Y-42423715D03*
G04 #@! TA.AperFunction,SMDPad,CuDef*
D14*
G36*
X60040340Y-41537628D02*
G01*
X59831962Y-42719397D01*
X58256270Y-42441560D01*
X58464648Y-41259791D01*
X60040340Y-41537628D01*
G37*
G04 #@! TD.AperFunction*
G04 #@! TA.AperFunction,SMDPad,CuDef*
G36*
X57282878Y-41051414D02*
G01*
X57074500Y-42233183D01*
X55498808Y-41955346D01*
X55707186Y-40773577D01*
X57282878Y-41051414D01*
G37*
G04 #@! TD.AperFunction*
G04 #@! TA.AperFunction,Conductor*
G36*
X35010775Y-47859610D02*
G01*
X34984607Y-48358925D01*
X32088581Y-48207150D01*
X32114749Y-47707835D01*
X35010775Y-47859610D01*
G37*
G04 #@! TD.AperFunction*
G04 #@! TA.AperFunction,Conductor*
G36*
X40003923Y-48121290D02*
G01*
X39977755Y-48620605D01*
X37081729Y-48468830D01*
X37107897Y-47969515D01*
X40003923Y-48121290D01*
G37*
G04 #@! TD.AperFunction*
G04 #@! TA.AperFunction,ComponentPad*
G36*
X32992369Y-47203075D02*
G01*
X32908632Y-48800882D01*
X31310825Y-48717145D01*
X31394562Y-47119338D01*
X32992369Y-47203075D01*
G37*
G04 #@! TD.AperFunction*
D15*
X39940907Y-48368330D03*
G04 #@! TA.AperFunction,SMDPad,CuDef*
D14*
G36*
X38274638Y-47680181D02*
G01*
X38211835Y-48878536D01*
X36614028Y-48794799D01*
X36676831Y-47596444D01*
X38274638Y-47680181D01*
G37*
G04 #@! TD.AperFunction*
G04 #@! TA.AperFunction,SMDPad,CuDef*
G36*
X35478476Y-47533641D02*
G01*
X35415673Y-48731996D01*
X33817866Y-48648259D01*
X33880669Y-47449904D01*
X35478476Y-47533641D01*
G37*
G04 #@! TD.AperFunction*
D13*
X204443453Y-95206167D02*
X205136273Y-94806167D01*
X200127589Y-100630871D02*
X200820409Y-100230871D01*
X95153769Y-111679310D02*
X95846589Y-112079310D01*
X88297905Y-110654014D02*
X88990725Y-111054014D01*
X108935083Y-123285399D02*
X109590405Y-123744261D01*
X102194668Y-121666478D02*
X102849990Y-122125340D01*
X118112305Y-110178968D02*
X118767627Y-110637830D01*
X111371890Y-108560047D02*
X112027212Y-109018909D01*
X103153771Y-97822904D02*
X103846591Y-98222904D01*
X96297907Y-96797608D02*
X96990727Y-97197608D01*
X212443452Y-109062573D02*
X213136272Y-108662573D01*
X208127588Y-114487277D02*
X208820408Y-114087277D01*
X198477537Y-120378895D02*
X199132859Y-119920033D01*
X194650891Y-126159109D02*
X195306213Y-125700247D01*
X189300313Y-107272465D02*
X189955635Y-106813603D01*
X185473667Y-113052679D02*
X186128989Y-112593817D01*
X271146234Y-70609390D02*
X271945746Y-70581470D01*
X264788808Y-73372944D02*
X265588320Y-73345024D01*
X252492649Y-63484069D02*
X253280495Y-63345151D01*
X246581705Y-67105512D02*
X247369551Y-66966594D01*
X235867486Y-61338403D02*
X236655332Y-61199485D01*
X229956542Y-64959846D02*
X230744388Y-64820928D01*
X205013388Y-76716612D02*
X205786128Y-76509556D01*
X199440567Y-80839446D02*
X200213307Y-80632390D01*
X103338924Y-77822945D02*
X104111664Y-78030001D01*
X96451302Y-78607014D02*
X97224042Y-78814070D01*
X87447872Y-69811714D02*
X88235718Y-69950632D01*
X80654796Y-71193095D02*
X81442642Y-71332013D01*
X72559189Y-62109305D02*
X73347035Y-62248223D01*
X65766113Y-63490686D02*
X66553959Y-63629604D01*
X55934024Y-64254973D02*
X56721870Y-64393891D01*
X49140948Y-65636354D02*
X49928794Y-65775272D01*
X37337873Y-70833852D02*
X38137385Y-70861772D01*
X30803158Y-73147203D02*
X31602670Y-73175123D01*
X270587844Y-54619137D02*
X271387356Y-54591217D01*
X264230418Y-57382691D02*
X265029930Y-57354771D01*
X249714278Y-47727144D02*
X250502124Y-47588226D01*
X243803334Y-51348587D02*
X244591180Y-51209669D01*
X233089113Y-45581478D02*
X233876959Y-45442560D01*
X227178169Y-49202921D02*
X227966015Y-49064003D01*
X218200430Y-53283888D02*
X218988276Y-53144970D01*
X212289486Y-56905331D02*
X213077332Y-56766413D01*
X200872284Y-61261799D02*
X201645024Y-61054743D01*
X195299463Y-65384633D02*
X196072203Y-65177577D01*
X107480030Y-62368131D02*
X108252770Y-62575187D01*
X100592408Y-63152200D02*
X101365148Y-63359256D01*
X90226244Y-54054791D02*
X91014090Y-54193709D01*
X83433168Y-55436172D02*
X84221014Y-55575090D01*
X75337561Y-46352381D02*
X76125407Y-46491299D01*
X68544485Y-47733762D02*
X69332331Y-47872680D01*
X58712394Y-48498050D02*
X59500240Y-48636968D01*
X51919318Y-49879431D02*
X52707164Y-50018349D01*
X270029452Y-38628882D02*
X270828964Y-38600962D01*
X263672026Y-41392436D02*
X264471538Y-41364516D01*
X246935909Y-31970223D02*
X247723755Y-31831305D01*
X241024965Y-35591666D02*
X241812811Y-35452748D01*
X230310744Y-29824554D02*
X231098590Y-29685636D01*
X224399800Y-33445997D02*
X225187646Y-33307079D01*
X215422060Y-37526963D02*
X216209906Y-37388045D01*
X209511116Y-41148406D02*
X210298962Y-41009488D01*
X196731179Y-45806986D02*
X197503919Y-45599930D01*
X191158358Y-49929820D02*
X191931098Y-49722764D01*
X111621133Y-46913318D02*
X112393873Y-47120374D01*
X104733511Y-47697387D02*
X105506251Y-47904443D01*
X93004615Y-38297867D02*
X93792461Y-38436785D01*
X86211539Y-39679248D02*
X86999385Y-39818166D01*
X78115932Y-30595457D02*
X78903778Y-30734375D01*
X71322856Y-31976838D02*
X72110702Y-32115756D01*
X61490765Y-32741125D02*
X62278611Y-32880043D01*
X54697689Y-34122506D02*
X55485535Y-34261424D01*
X38454656Y-38853346D02*
X39254168Y-38881266D01*
X31919941Y-41166697D02*
X32719453Y-41194617D01*
D16*
X163900000Y-40900000D03*
X163900000Y-43500000D03*
X163900000Y-46000000D03*
X163900000Y-48500000D03*
X163804505Y-42395495D03*
X163900000Y-44800000D03*
X163900000Y-47300000D03*
D17*
X35084897Y-48714660D02*
X34648170Y-48090950D01*
X40221424Y-49760904D02*
X35197162Y-48874992D01*
X52894776Y-40886928D02*
X40221424Y-49760904D01*
X35197162Y-48874992D02*
X35084897Y-48714660D01*
X53928824Y-41069259D02*
X52894776Y-40886928D01*
X56243242Y-42340466D02*
X56390843Y-41503379D01*
X56466312Y-42659042D02*
X56243242Y-42340466D01*
X64488184Y-44073515D02*
X56466312Y-42659042D01*
X70071255Y-40164206D02*
X64488184Y-44073515D01*
X70210258Y-39375880D02*
X70071255Y-40164206D01*
X73156488Y-40395841D02*
X72685929Y-39723813D01*
X76497091Y-45166716D02*
X73156488Y-40395841D01*
X85443348Y-46744182D02*
X76497091Y-45166716D01*
X87757767Y-48015389D02*
X87905367Y-47178303D01*
X90760683Y-52303998D02*
X87757767Y-48015389D01*
X103596567Y-54567311D02*
X90760683Y-52303998D01*
X158496299Y-31666299D02*
X157620000Y-30790000D01*
X158821301Y-31991301D02*
X158496299Y-31666299D01*
X153400615Y-54567311D02*
X158821301Y-49146625D01*
X158821301Y-49146625D02*
X158821301Y-31991301D01*
X103596567Y-54567311D02*
X153400615Y-54567311D01*
X196326187Y-56625097D02*
X195684591Y-56175847D01*
X204634895Y-55357628D02*
X196551597Y-56782931D01*
X209670098Y-48166612D02*
X204634895Y-55357628D01*
X196551597Y-56782931D02*
X196326187Y-56625097D01*
X210704146Y-47984281D02*
X209670098Y-48166612D01*
X213313767Y-48387248D02*
X213166166Y-47550161D01*
X213632343Y-48610317D02*
X213313767Y-48387248D01*
X221977728Y-47138801D02*
X213632343Y-48610317D01*
X226124417Y-41216716D02*
X221977728Y-47138801D01*
X225942086Y-40182668D02*
X226124417Y-41216716D01*
X228551706Y-40585634D02*
X228404105Y-39748548D01*
X233469375Y-44029023D02*
X228551706Y-40585634D01*
X242508813Y-42435126D02*
X233469375Y-44029023D01*
X246152482Y-42655761D02*
X245167794Y-41966276D01*
X256205572Y-49867655D02*
X246187211Y-42852723D01*
X245167794Y-41966276D02*
X244970832Y-42001005D01*
X246187211Y-42852723D02*
X246152482Y-42655761D01*
X264365784Y-48428789D02*
X256205572Y-49867655D01*
X192441557Y-56822894D02*
X193269777Y-56822894D01*
X179257209Y-56822894D02*
X192441557Y-56822894D01*
X163900000Y-41465685D02*
X179257209Y-56822894D01*
X163900000Y-40900000D02*
X163900000Y-41465685D01*
X33215940Y-64198732D02*
X33033971Y-63938853D01*
X33474222Y-64567597D02*
X33215940Y-64198732D01*
X39532609Y-65635854D02*
X33474222Y-64567597D01*
X50820479Y-57732003D02*
X39532609Y-65635854D01*
X50987386Y-56785427D02*
X50820479Y-57732003D01*
X53524874Y-58375211D02*
X53301804Y-58056634D01*
X61902314Y-59852380D02*
X53524874Y-58375211D01*
X53301804Y-58056634D02*
X53449405Y-57219548D01*
X67787690Y-55731395D02*
X61902314Y-59852380D01*
X67970020Y-54697347D02*
X67787690Y-55731395D01*
X70284439Y-55968554D02*
X70432040Y-55131468D01*
X73722792Y-60879031D02*
X70284439Y-55968554D01*
X83008723Y-62516391D02*
X73722792Y-60879031D01*
X85323142Y-63787599D02*
X85470743Y-62950512D01*
X88510889Y-68340174D02*
X85323142Y-63787599D01*
X99143406Y-70214973D02*
X88510889Y-68340174D01*
X30842127Y-63725621D02*
X31635889Y-63865583D01*
X158196625Y-29588699D02*
X157043375Y-29588699D01*
X156743701Y-32453701D02*
X157620000Y-33330000D01*
X157043375Y-29588699D02*
X156418699Y-30213375D01*
X159271311Y-30663385D02*
X158196625Y-29588699D01*
X156418699Y-30213375D02*
X156418699Y-32128699D01*
X159271311Y-49333025D02*
X159271311Y-30663385D01*
X156418699Y-32128699D02*
X156743701Y-32453701D01*
X138231141Y-70373195D02*
X159271311Y-49333025D01*
X100699825Y-70373195D02*
X138231141Y-70373195D01*
X100495701Y-70577319D02*
X100699825Y-70373195D01*
X248250395Y-58671310D02*
X248102794Y-57834223D01*
X257802807Y-65359981D02*
X248250395Y-58671310D01*
X264799305Y-64126309D02*
X257802807Y-65359981D01*
X231376095Y-56492327D02*
X231228494Y-55655240D01*
X236271812Y-59920344D02*
X231376095Y-56492327D01*
X245640775Y-58268344D02*
X236271812Y-59920344D01*
X216363541Y-64012513D02*
X216215940Y-63175426D01*
X216682117Y-64235583D02*
X216363541Y-64012513D01*
X222927088Y-63134426D02*
X216682117Y-64235583D01*
X227732427Y-56271691D02*
X222927088Y-63134426D01*
X228766475Y-56089360D02*
X227732427Y-56271691D01*
X200108159Y-71912892D02*
X199466563Y-71463641D01*
X213936251Y-64643595D02*
X209919214Y-70380518D01*
X200333569Y-72070725D02*
X200108159Y-71912892D01*
X209919214Y-70380518D02*
X200333569Y-72070725D01*
X213753920Y-63609547D02*
X213936251Y-64643595D01*
X192510689Y-72110689D02*
X197051749Y-72110689D01*
X163900000Y-43500000D02*
X192510689Y-72110689D01*
X33901749Y-81110560D02*
X33789483Y-80950229D01*
X33789483Y-80950229D02*
X33352757Y-80326518D01*
X38752904Y-81965950D02*
X33901749Y-81110560D01*
X47936655Y-75535418D02*
X38752904Y-81965950D01*
X48388382Y-72973546D02*
X47936655Y-75535418D01*
X50702800Y-74244753D02*
X50850401Y-73407666D01*
X50925870Y-74563330D02*
X50702800Y-74244753D01*
X58853174Y-75961127D02*
X50925870Y-74563330D01*
X64872398Y-71746422D02*
X58853174Y-75961127D01*
X65054728Y-70712373D02*
X64872398Y-71746422D01*
X67369147Y-71983580D02*
X67516748Y-71146494D01*
X70786506Y-76864075D02*
X67369147Y-71983580D01*
X80193049Y-78522703D02*
X70786506Y-76864075D01*
X82377231Y-80532515D02*
X82507468Y-79793910D01*
X82507468Y-79793910D02*
X82655068Y-78956823D01*
X84675446Y-83814706D02*
X82377231Y-80532515D01*
X95378865Y-85702008D02*
X84675446Y-83814706D01*
X30062421Y-80055716D02*
X30856183Y-80195678D01*
X156743701Y-34993701D02*
X157620000Y-35870000D01*
X155968689Y-34218689D02*
X156743701Y-34993701D01*
X155968689Y-28123385D02*
X155968689Y-34218689D01*
X96100000Y-98200000D02*
X100700000Y-98200000D01*
X94600000Y-96700000D02*
X96100000Y-98200000D01*
X138417542Y-70823204D02*
X159721321Y-49519425D01*
X100700000Y-98200000D02*
X128076796Y-70823204D01*
X159721321Y-28573395D02*
X158196625Y-27048699D01*
X159721321Y-49519425D02*
X159721321Y-28573395D01*
X158196625Y-27048699D02*
X157043375Y-27048699D01*
X96731160Y-86064353D02*
X94600000Y-88195513D01*
X128076796Y-70823204D02*
X138417542Y-70823204D01*
X157043375Y-27048699D02*
X155968689Y-28123385D01*
X94600000Y-88195513D02*
X94600000Y-96700000D01*
X204479133Y-87352601D02*
X203837538Y-86903351D01*
X204704544Y-87510435D02*
X204479133Y-87352601D01*
X216743206Y-80749525D02*
X213038069Y-86041009D01*
X213038069Y-86041009D02*
X204704544Y-87510435D01*
X216560876Y-79715477D02*
X216743206Y-80749525D01*
X219170496Y-80118443D02*
X219022895Y-79281357D01*
X227370664Y-78951776D02*
X219489073Y-80341513D01*
X231465620Y-73103573D02*
X227370664Y-78951776D01*
X219489073Y-80341513D02*
X219170496Y-80118443D01*
X231283290Y-72069525D02*
X231465620Y-73103573D01*
X233892910Y-72472491D02*
X233745309Y-71635404D01*
X238706712Y-75843152D02*
X233892910Y-72472491D01*
X248265926Y-74157604D02*
X238706712Y-75843152D01*
X250875546Y-74560571D02*
X250727946Y-73723484D01*
X260521633Y-81314833D02*
X250875546Y-74560571D01*
X265072199Y-80512445D02*
X260521633Y-81314833D01*
X200631869Y-87689847D02*
X201422724Y-87550398D01*
X194000000Y-80127675D02*
X201422723Y-87550398D01*
X163900000Y-46000000D02*
X194000000Y-76100000D01*
X194000000Y-76100000D02*
X194000000Y-80127675D01*
X200600927Y-131179901D02*
X200165065Y-131179901D01*
X201871406Y-129909422D02*
X200600927Y-131179901D01*
X201900000Y-123000000D02*
X201871406Y-129909422D01*
X201900000Y-118700000D02*
X201900000Y-123000000D01*
X210501436Y-119254034D02*
X210501436Y-113501436D01*
X211943989Y-120696587D02*
X210501436Y-119254034D01*
X207900000Y-112700000D02*
X201900000Y-118700000D01*
X210501436Y-113501436D02*
X209700000Y-112700000D01*
X209700000Y-112700000D02*
X207900000Y-112700000D01*
X203361243Y-105960106D02*
X203946883Y-106545746D01*
X163900000Y-69900000D02*
X199249989Y-105249989D01*
X202651126Y-105249989D02*
X203361243Y-105960106D01*
X199249989Y-105249989D02*
X202651126Y-105249989D01*
X163900000Y-48500000D02*
X163900000Y-69900000D01*
X200600000Y-121700000D02*
X201900000Y-123000000D01*
X189747275Y-118624054D02*
X192823221Y-121700000D01*
X192823221Y-121700000D02*
X200600000Y-121700000D01*
X156743701Y-37533701D02*
X157620000Y-38410000D01*
X155518679Y-36308679D02*
X156743701Y-37533701D01*
X155518679Y-26033395D02*
X155518679Y-36308679D01*
X158208699Y-24508699D02*
X157043375Y-24508699D01*
X157043375Y-24508699D02*
X155518679Y-26033395D01*
X160171331Y-26471331D02*
X158208699Y-24508699D01*
X160171331Y-49705825D02*
X160171331Y-26471331D01*
X138603943Y-71273213D02*
X160171331Y-49705825D01*
X132925886Y-71273213D02*
X138603943Y-71273213D01*
X100437923Y-103761176D02*
X132925886Y-71273213D01*
X94114275Y-103761176D02*
X100437923Y-103761176D01*
X93528635Y-103175536D02*
X94114275Y-103761176D01*
X97186617Y-96617886D02*
X96644317Y-96997609D01*
X99074136Y-85913232D02*
X97186617Y-96617886D01*
X94737037Y-84378762D02*
X98459255Y-85035090D01*
X79344506Y-77230726D02*
X91195062Y-79320298D01*
X98459255Y-85035090D02*
X99074136Y-85913232D01*
X75237661Y-71365543D02*
X79344506Y-77230726D01*
X64206186Y-69420396D02*
X75237661Y-71365543D01*
X58273847Y-73574264D02*
X64206186Y-69420396D01*
X47539839Y-71681569D02*
X58273847Y-73574264D01*
X45008610Y-73453954D02*
X47539839Y-71681569D01*
X33646088Y-71450435D02*
X45008610Y-73453954D01*
X31202913Y-73161164D02*
X33646088Y-71450435D01*
X91195062Y-79320298D02*
X92613017Y-81205048D01*
X92613017Y-81205048D02*
X94737037Y-84378762D01*
X141503701Y-34993701D02*
X142380000Y-35870000D01*
X135730437Y-29220437D02*
X141503701Y-34993701D01*
X44279917Y-29220437D02*
X135730437Y-29220437D01*
X32319697Y-41180657D02*
X44279917Y-29220437D01*
X191054830Y-49336394D02*
X191544728Y-49826292D01*
X181893435Y-40174999D02*
X191054830Y-49336394D01*
X163551999Y-40174999D02*
X181893435Y-40174999D01*
X163174999Y-40551999D02*
X163551999Y-40174999D01*
X163174999Y-41765989D02*
X163174999Y-40551999D01*
X163804505Y-42395495D02*
X163174999Y-41765989D01*
X111814511Y-108137509D02*
X111699551Y-108789478D01*
X185801328Y-112823248D02*
X185278295Y-112457016D01*
X141503701Y-37533701D02*
X142380000Y-38410000D01*
X133640447Y-29670447D02*
X141503701Y-37533701D01*
X59613130Y-29670447D02*
X133640447Y-29670447D01*
X55091612Y-34191965D02*
X59613130Y-29670447D01*
X181767558Y-108789478D02*
X185801328Y-112823248D01*
X111699551Y-108789478D02*
X181767558Y-108789478D01*
X209388541Y-40562449D02*
X209905039Y-41078947D01*
X208551081Y-39724989D02*
X209388541Y-40562449D01*
X163365599Y-39724989D02*
X208551081Y-39724989D01*
X162724990Y-40365598D02*
X163365599Y-39724989D01*
X162724989Y-44190674D02*
X162724990Y-40365598D01*
X163334315Y-44800000D02*
X162724989Y-44190674D01*
X163900000Y-44800000D02*
X163334315Y-44800000D01*
X194978551Y-125929678D02*
X196205585Y-125713319D01*
X141503701Y-40073701D02*
X142380000Y-40950000D01*
X133089385Y-31659385D02*
X141503701Y-40073701D01*
X72103691Y-31659385D02*
X133089385Y-31659385D01*
X71716779Y-32046297D02*
X72103691Y-31659385D01*
X190944783Y-121895909D02*
X194978552Y-125929678D01*
X102522329Y-121895909D02*
X190944783Y-121895909D01*
X101642098Y-121895909D02*
X102522329Y-121895909D01*
X99653124Y-121895909D02*
X101642098Y-121895909D01*
X51244802Y-66155198D02*
X50578310Y-66821690D01*
X56844802Y-66155198D02*
X51244802Y-66155198D01*
X58923356Y-64076644D02*
X56844802Y-66155198D01*
X66160036Y-63560145D02*
X65643537Y-64076644D01*
X65643537Y-64076644D02*
X58923356Y-64076644D01*
X28680042Y-80713390D02*
X70153654Y-122187002D01*
X50578310Y-66821690D02*
X31878310Y-66821690D01*
X31878310Y-66821690D02*
X28680042Y-70019958D01*
X28680042Y-70019958D02*
X28680042Y-80713390D01*
X70153654Y-122187002D02*
X99362031Y-122187002D01*
X99362031Y-122187002D02*
X99653124Y-121895909D01*
X194978552Y-126660118D02*
X194978552Y-125929678D01*
X194230112Y-127408558D02*
X194978552Y-126660118D01*
X231813499Y-64415198D02*
X255668950Y-64415198D01*
X255668950Y-64415198D02*
X260653752Y-69400000D01*
X221986986Y-133422101D02*
X198354246Y-133422101D01*
X230350465Y-64890387D02*
X231338310Y-64890387D01*
X260653752Y-69400000D02*
X272600000Y-69400000D01*
X231338310Y-64890387D02*
X231813499Y-64415198D01*
X272600000Y-69400000D02*
X275326794Y-72126794D01*
X275326794Y-72126794D02*
X275326794Y-80082293D01*
X275326794Y-80082293D02*
X221986986Y-133422101D01*
X198354246Y-133422101D02*
X194230112Y-129297967D01*
X194230112Y-129297967D02*
X194230112Y-127408558D01*
X138638707Y-39748707D02*
X142380000Y-43490000D01*
X86605462Y-39748707D02*
X138638707Y-39748707D01*
X207562377Y-114287277D02*
X208473998Y-114287277D01*
X207479145Y-118077019D02*
X207479145Y-114370509D01*
X211516543Y-122114417D02*
X207479145Y-118077019D01*
X232658260Y-122114417D02*
X211516543Y-122114417D01*
X273992447Y-80780230D02*
X232658260Y-122114417D01*
X273992447Y-79700228D02*
X273992447Y-80780230D01*
X272417146Y-78124927D02*
X273992447Y-79700228D01*
X272417146Y-75617146D02*
X272417146Y-78124927D01*
X268478148Y-71678148D02*
X272417146Y-75617146D01*
X250544893Y-71678148D02*
X268478148Y-71678148D01*
X246975628Y-68108883D02*
X250544893Y-71678148D01*
X207479145Y-114370509D02*
X207562377Y-114287277D01*
X246975628Y-67036053D02*
X246975628Y-68108883D01*
X59457076Y-110854014D02*
X88644315Y-110854014D01*
X29586880Y-80983818D02*
X59457076Y-110854014D01*
X29586880Y-79407540D02*
X29586880Y-80983818D01*
X31800000Y-74300000D02*
X31800000Y-77194420D01*
X80740903Y-70954738D02*
X75499372Y-70954738D01*
X31800000Y-77194420D02*
X29586880Y-79407540D01*
X75499372Y-70954738D02*
X64100761Y-68944855D01*
X63958762Y-69044284D02*
X58168422Y-73098723D01*
X81048719Y-71262554D02*
X80740903Y-70954738D01*
X64100761Y-68944855D02*
X63958762Y-69044284D01*
X47434414Y-71206028D02*
X45628386Y-69400000D01*
X45628386Y-69400000D02*
X31300000Y-69400000D01*
X31300000Y-69400000D02*
X29300000Y-71400000D01*
X30100000Y-74300000D02*
X31800000Y-74300000D01*
X58168422Y-73098723D02*
X47434414Y-71206028D01*
X29300000Y-71400000D02*
X29300000Y-73500000D01*
X29300000Y-73500000D02*
X30100000Y-74300000D01*
X218556071Y-115671586D02*
X226215429Y-115671586D01*
X215151466Y-112266981D02*
X218556071Y-115671586D01*
X209903392Y-112266981D02*
X215151466Y-112266981D01*
X209886400Y-112249989D02*
X209903392Y-112266981D01*
X90521648Y-108976681D02*
X109647094Y-108976681D01*
X206349989Y-112249989D02*
X209886400Y-112249989D01*
X88644315Y-110854014D02*
X90521648Y-108976681D01*
X109647094Y-108976681D02*
X112923775Y-105700000D01*
X112923775Y-105700000D02*
X199800000Y-105700000D01*
X226215429Y-115671586D02*
X232658260Y-122114417D01*
X199800000Y-105700000D02*
X206349989Y-112249989D01*
X141503701Y-46906299D02*
X142380000Y-46030000D01*
X139964471Y-48445529D02*
X141503701Y-46906299D01*
X105764495Y-48445529D02*
X139964471Y-48445529D01*
X105119881Y-47800915D02*
X105764495Y-48445529D01*
X142380000Y-46030000D02*
X142380000Y-45920000D01*
X263510192Y-40816886D02*
X264071782Y-41378476D01*
X253599602Y-30906296D02*
X263510192Y-40816886D01*
X171547882Y-30906296D02*
X253599602Y-30906296D01*
X162274981Y-46240666D02*
X162274981Y-40179197D01*
X162274981Y-40179197D02*
X171547882Y-30906296D01*
X163334315Y-47300000D02*
X162274981Y-46240666D01*
X163900000Y-47300000D02*
X163334315Y-47300000D01*
M02*
