M48
; DRILL file {KiCad (5.1.5)-1} date 7/11/2021 5:02:00 PM
; FORMAT={-:-/ absolute / inch / decimal}
; #@! TF.CreationDate,2021-07-11T17:02:00-04:00
; #@! TF.GenerationSoftware,Kicad,Pcbnew,(5.1.5)-1
; #@! TF.FileFunction,NonPlated,1,2,NPTH
FMAT,2
INCH
T1C0.0661
T2C0.0866
T3C0.1567
%
G90
G05
T1
X9.4728Y-1.5057
X9.4953Y-1.5017
X9.8442Y-1.4402
X9.8667Y-1.4362
X1.219Y-1.7195
X1.2418Y-1.7203
X1.5959Y-1.7326
X1.6187Y-1.7334
X3.7383Y-3.1825
X3.7604Y-3.1884
X4.1026Y-3.2801
X4.1247Y-3.286
X3.1243Y-2.8954
X3.1468Y-2.8994
X3.4957Y-2.9609
X3.5182Y-2.9649
X4.2993Y-4.3363
X4.318Y-4.3494
X4.6083Y-4.5526
X4.627Y-4.5657
X8.3415Y-2.3448
X8.364Y-2.3408
X8.7129Y-2.2793
X8.7354Y-2.2753
X3.9014Y-2.574
X3.9234Y-2.5799
X4.2657Y-2.6717
X4.2877Y-2.6776
X7.8448Y-3.2881
X7.8668Y-3.2822
X8.2091Y-3.1905
X8.2312Y-3.1846
X1.197Y-2.349
X1.2198Y-2.3498
X1.5739Y-2.3622
X1.5967Y-2.363
X7.5187Y-2.0712
X7.5408Y-2.0653
X7.883Y-1.9736
X7.9051Y-1.9677
X1.993Y-2.0563
X2.0155Y-2.0603
X2.3644Y-2.1218
X2.3869Y-2.1257
X8.9277Y-2.0416
X8.9501Y-2.0376
X9.2991Y-1.9761
X9.3216Y-1.9721
X9.037Y-2.6619
X9.0595Y-2.6579
X9.4085Y-2.5964
X9.431Y-2.5924
X8.4509Y-2.9651
X8.4734Y-2.9612
X8.8223Y-2.8997
X8.8448Y-2.8957
X3.938Y-4.8523
X3.9567Y-4.8654
X4.247Y-5.0686
X4.2657Y-5.0817
X7.6927Y-5.0685
X7.7114Y-5.0554
X8.0017Y-4.8521
X8.0204Y-4.839
X10.35Y-1.7308
X10.3729Y-1.73
X10.727Y-1.7176
X10.7498Y-1.7168
X1.175Y-2.9786
X1.1978Y-2.9794
X1.5519Y-2.9917
X1.5748Y-2.9925
X2.5381Y-2.5922
X2.5606Y-2.5961
X2.9096Y-2.6577
X2.932Y-2.6616
X10.394Y-2.9898
X10.4168Y-2.989
X10.771Y-2.9767
X10.7938Y-2.9759
X3.3966Y-4.4259
X3.4164Y-4.4374
X3.7233Y-4.6145
X3.743Y-4.6259
X2.1024Y-1.4359
X2.1248Y-1.4399
X2.4738Y-1.5014
X2.4963Y-1.5054
X1.8836Y-2.6766
X1.9061Y-2.6806
X2.255Y-2.7421
X2.2775Y-2.7461
X7.6818Y-2.6797
X7.7038Y-2.6737
X8.0461Y-2.582
X8.0681Y-2.5761
X9.5822Y-2.126
X9.6047Y-2.1221
X9.9536Y-2.0605
X9.9761Y-2.0566
X3.3431Y-1.6547
X3.3655Y-1.6587
X3.7145Y-1.7202
X3.737Y-1.7242
X8.2143Y-4.6111
X8.2341Y-4.5997
X8.541Y-4.4225
X8.5607Y-4.4111
X7.8994Y-4.0656
X7.9192Y-4.0542
X8.226Y-3.877
X8.2458Y-3.8656
X2.7569Y-1.3515
X2.7794Y-1.3554
X3.1283Y-1.417
X3.1508Y-1.4209
X2.6475Y-1.9718
X2.67Y-1.9758
X3.0189Y-2.0373
X3.0414Y-2.0413
X10.372Y-2.3603
X10.3949Y-2.3595
X10.749Y-2.3471
X10.7718Y-2.3463
X7.3314Y-4.5525
X7.3501Y-4.5394
X7.6404Y-4.3361
X7.6591Y-4.323
X8.8183Y-1.4212
X8.8408Y-1.4172
X9.1897Y-1.3557
X9.2122Y-1.3517
X3.7116Y-3.8804
X3.7314Y-3.8918
X4.0382Y-4.069
X4.058Y-4.0804
X8.2321Y-1.7244
X8.2546Y-1.7205
X8.6035Y-1.659
X8.626Y-1.655
X4.0644Y-1.9656
X4.0865Y-1.9715
X4.4287Y-2.0632
X4.4508Y-2.0691
X3.2337Y-2.2751
X3.2562Y-2.279
X3.6051Y-2.3406
X3.6276Y-2.3445
X9.6916Y-2.7464
X9.7141Y-2.7424
X10.063Y-2.6809
X10.0855Y-2.6769
T2
X0.5906Y-5.1181
X11.2205Y-5.1181
X11.2205Y-1.2598
X0.5906Y-1.2598
T3
X7.4952Y-4.4377
X9.0152Y-1.3865
X3.8848Y-3.9804
X8.4291Y-1.6897
X4.2576Y-2.0173
X3.4306Y-2.3098
X9.8885Y-2.7116
X9.6698Y-1.4709
X1.4188Y-1.7265
X3.9315Y-3.2343
X3.3213Y-2.9301
X4.4631Y-4.451
X8.5384Y-2.3101
X4.0945Y-2.6258
X8.038Y-3.2363
X1.3969Y-2.356
X7.7119Y-2.0194
X2.1899Y-2.091
X9.1246Y-2.0068
X9.234Y-2.6272
X8.6478Y-2.9304
X4.1018Y-4.967
X7.8566Y-4.9537
X10.5499Y-1.7238
X1.3749Y-2.9855
X2.7351Y-2.6269
X10.5939Y-2.9829
X3.5698Y-4.5259
X2.2993Y-1.4707
X2.0805Y-2.7114
X7.8749Y-2.6279
X9.7792Y-2.0913
X3.54Y-1.6894
X8.3875Y-4.5111
X8.0726Y-3.9656
X2.9539Y-1.3862
X2.8445Y-2.0065
X10.5719Y-2.3533
T0
M30
