M48
; DRILL file {KiCad (5.1.5)-1} date 7/11/2021 5:02:00 PM
; FORMAT={-:-/ absolute / inch / decimal}
; #@! TF.CreationDate,2021-07-11T17:02:00-04:00
; #@! TF.GenerationSoftware,Kicad,Pcbnew,(5.1.5)-1
; #@! TF.FileFunction,Plated,1,2,PTH
FMAT,2
INCH
T1C0.0157
T2C0.0315
T3C0.0394
T4C0.0430
%
G90
G05
T1
X6.449Y-1.6691
X6.4528Y-1.6102
X6.4528Y-1.7126
X6.4528Y-1.7638
X6.4528Y-1.811
X6.4528Y-1.8622
X6.4528Y-1.9094
T2
X6.4646Y-0.8646
X6.4646Y-1.0646
T3
X1.2148Y-3.1573
X1.5215Y-3.1734
X3.7551Y-3.3741
X4.0517Y-3.4536
X7.93Y-3.4469
X8.2267Y-3.3674
X7.8354Y-5.1962
X8.0869Y-5.02
X2.0074Y-2.2356
X2.3098Y-2.289
X3.1572Y-3.0914
X3.4596Y-3.1448
X10.4081Y-1.9066
X10.715Y-1.8959
X7.4704Y-4.6702
X7.7219Y-4.4941
X8.526Y-3.1384
X8.8284Y-3.0851
X3.3639Y-1.8403
X3.6663Y-1.8936
X8.2954Y-1.8891
X8.5979Y-1.8358
X1.2455Y-2.5144
X1.5522Y-2.5305
X8.4155Y-2.5043
X8.7179Y-2.451
X9.6709Y-2.294
X9.9733Y-2.2407
X4.0786Y-2.1483
X4.3752Y-2.2278
X8.3443Y-4.7518
X8.6102Y-4.5983
X2.676Y-2.1534
X2.9784Y-2.2068
X9.0066Y-2.2082
X9.309Y-2.1549
X10.4252Y-2.5247
X10.7321Y-2.5139
X10.4359Y-3.1698
X10.7428Y-3.1591
X8.0294Y-4.1947
X8.2953Y-4.0412
X3.9033Y-2.7644
X4.1999Y-2.8438
X3.2681Y-2.4613
X3.5705Y-2.5146
X3.6822Y-4.062
X3.9482Y-4.2156
X7.609Y-2.2371
X7.9057Y-2.1576
X4.2321Y-4.517
X4.4837Y-4.6932
X7.7579Y-2.839
X8.0546Y-2.7595
X2.5612Y-2.784
X2.8636Y-2.8373
X3.8779Y-5.0302
X4.1294Y-5.2063
X9.1056Y-2.8374
X9.4081Y-2.7841
X2.1232Y-1.6169
X2.4256Y-1.6702
X1.9051Y-2.873
X2.2075Y-2.9263
X9.5476Y-1.6707
X9.85Y-1.6173
X8.8954Y-1.582
X9.1978Y-1.5287
X3.351Y-4.6127
X3.617Y-4.7662
X2.7642Y-1.5502
X3.0683Y-1.593
X9.7742Y-2.9196
X10.0767Y-2.8663
X1.2658Y-1.8882
X1.5725Y-1.9043
T4
X5.6055Y-0.8122
X5.6055Y-0.9122
X5.6055Y-1.0122
X5.6055Y-1.1122
X5.6055Y-1.2122
X5.6055Y-1.3122
X5.6055Y-1.4122
X5.6055Y-1.5122
X5.6055Y-1.6122
X5.6055Y-1.7122
X5.6055Y-1.8122
X5.6055Y-1.9122
X6.2055Y-0.8122
X6.2055Y-0.9122
X6.2055Y-1.0122
X6.2055Y-1.1122
X6.2055Y-1.2122
X6.2055Y-1.3122
X6.2055Y-1.4122
X6.2055Y-1.5122
X6.2055Y-1.6122
X6.2055Y-1.7122
X6.2055Y-1.8122
X6.2055Y-1.9122
T1
G00X3.4763Y-4.3565
M15
G01X3.5036Y-4.3722
M16
G05
G00X3.7428Y-4.3949
M15
G01X3.7769Y-4.4145
M16
G05
G00X2.1535Y-1.3434
M15
G01X2.1845Y-1.3489
M16
G05
G00X2.417Y-1.2883
M15
G01X2.4558Y-1.2952
M16
G05
G00X1.9347Y-2.5841
M15
G01X1.9657Y-2.5896
M16
G05
G00X2.1982Y-2.529
M15
G01X2.237Y-2.5359
M16
G05
G00X7.689Y-2.5742
M15
G01X7.7194Y-2.566
M16
G05
G00X7.9046Y-2.4129
M15
G01X7.9426Y-2.4027
M16
G05
G00X9.5986Y-2.0216
M15
G01X9.6296Y-2.0161
M16
G05
G00X9.8274Y-1.8797
M15
G01X9.8662Y-1.8729
M16
G05
G00X3.3942Y-1.5622
M15
G01X3.4252Y-1.5676
M16
G05
G00X3.6577Y-1.5071
M15
G01X3.6965Y-1.5139
M16
G05
G00X8.194Y-4.5074
M15
G01X8.2213Y-4.4916
M16
G05
G00X8.3605Y-4.2958
M15
G01X8.3946Y-4.2761
M16
G05
G00X7.879Y-3.9618
M15
G01X7.9063Y-3.9461
M16
G05
G00X8.0455Y-3.7502
M15
G01X8.0796Y-3.7306
M16
G05
G00X2.808Y-1.2589
M15
G01X2.839Y-1.2644
M16
G05
G00X3.0716Y-1.2039
M15
G01X3.1103Y-1.2107
M16
G05
G00X2.6986Y-1.8793
M15
G01X2.7296Y-1.8848
M16
G05
G00X2.9622Y-1.8242
M15
G01X3.0009Y-1.831
M16
G05
G00X10.4028Y-2.2592
M15
G01X10.4342Y-2.2581
M16
G05
G00X10.6491Y-2.1505
M15
G01X10.6885Y-2.1491
M16
G05
G00X7.3021Y-4.4509
M15
G01X7.3279Y-4.4328
M16
G05
G00X7.4495Y-4.2256
M15
G01X7.4818Y-4.203
M16
G05
G00X8.8346Y-1.3168
M15
G01X8.8657Y-1.3113
M16
G05
G00X9.0635Y-1.1749
M15
G01X9.1022Y-1.168
M16
G05
G00X3.7913Y-3.8109
M15
G01X3.8185Y-3.8267
M16
G05
G00X4.0578Y-3.8493
M15
G01X4.0919Y-3.869
M16
G05
G00X8.2485Y-1.62
M15
G01X8.2795Y-1.6145
M16
G05
G00X8.4773Y-1.4781
M15
G01X8.5161Y-1.4713
M16
G05
G00X4.1234Y-1.8778
M15
G01X4.1538Y-1.886
M16
G05
G00X4.3907Y-1.846
M15
G01X4.4288Y-1.8562
M16
G05
G00X3.2848Y-2.1825
M15
G01X3.3158Y-2.188
M16
G05
G00X3.5483Y-2.1275
M15
G01X3.5871Y-2.1343
M16
G05
G00X9.7079Y-2.6419
M15
G01X9.739Y-2.6365
M16
G05
G00X9.9368Y-2.5001
M15
G01X9.9756Y-2.4932
M16
G05
G00X9.4892Y-1.4012
M15
G01X9.5202Y-1.3958
M16
G05
G00X9.718Y-1.2594
M15
G01X9.7568Y-1.2525
M16
G05
G00X1.2567Y-1.6207
M15
G01X1.2882Y-1.6218
M16
G05
G00X1.51Y-1.5295
M15
G01X1.5494Y-1.5309
M16
G05
G00X3.7973Y-3.0948
M15
G01X3.8277Y-3.1029
M16
G05
G00X4.0647Y-3.0629
M15
G01X4.1027Y-3.0731
M16
G05
G00X3.1754Y-2.8029
M15
G01X3.2064Y-2.8083
M16
G05
G00X3.439Y-2.7478
M15
G01X3.4777Y-2.7546
M16
G05
G00X4.3847Y-4.274
M15
G01X4.4105Y-4.2921
M16
G05
G00X4.6469Y-4.3355
M15
G01X4.6791Y-4.3581
M16
G05
G00X8.3579Y-2.2404
M15
G01X8.3889Y-2.2349
M16
G05
G00X8.5867Y-2.0985
M15
G01X8.6255Y-2.0916
M16
G05
G00X3.9603Y-2.4863
M15
G01X3.9908Y-2.4945
M16
G05
G00X4.2277Y-2.4544
M15
G01X4.2657Y-2.4646
M16
G05
G00X7.852Y-3.1827
M15
G01X7.8824Y-3.1745
M16
G05
G00X8.0676Y-3.0214
M15
G01X8.1056Y-3.0112
M16
G05
G00X1.2347Y-2.2503
M15
G01X1.2662Y-2.2514
M16
G05
G00X1.488Y-2.1591
M15
G01X1.5274Y-2.1604
M16
G05
G00X7.5259Y-1.9657
M15
G01X7.5563Y-1.9576
M16
G05
G00X7.7415Y-1.8044
M15
G01X7.7795Y-1.7943
M16
G05
G00X2.0441Y-1.9638
M15
G01X2.0751Y-1.9692
M16
G05
G00X2.3076Y-1.9087
M15
G01X2.3464Y-1.9155
M16
G05
G00X8.944Y-1.9371
M15
G01X8.975Y-1.9317
M16
G05
G00X9.1729Y-1.7952
M15
G01X9.2116Y-1.7884
M16
G05
G00X9.0534Y-2.5575
M15
G01X9.0844Y-2.552
M16
G05
G00X9.2822Y-2.4156
M15
G01X9.321Y-2.4087
M16
G05
G00X8.4672Y-2.8607
M15
G01X8.4983Y-2.8552
M16
G05
G00X8.6961Y-2.7188
M15
G01X8.7348Y-2.712
M16
G05
G00X4.0234Y-4.79
M15
G01X4.0492Y-4.8081
M16
G05
G00X4.2856Y-4.8515
M15
G01X4.3178Y-4.8741
M16
G05
G00X7.6634Y-4.9669
M15
G01X7.6892Y-4.9488
M16
G05
G00X7.8109Y-4.7416
M15
G01X7.8431Y-4.719
M16
G05
G00X10.3808Y-1.6296
M15
G01X10.4123Y-1.6285
M16
G05
G00X10.6271Y-1.521
M15
G01X10.6665Y-1.5196
M16
G05
G00X1.2127Y-2.8798
M15
G01X1.2442Y-2.8809
M16
G05
G00X1.4661Y-2.7886
M15
G01X1.5054Y-2.79
M16
G05
G00X2.5892Y-2.4996
M15
G01X2.6202Y-2.5051
M16
G05
G00X2.8528Y-2.4446
M15
G01X2.8916Y-2.4514
M16
G05
G00X10.4248Y-2.8887
M15
G01X10.4562Y-2.8876
M16
G05
G00X10.6711Y-2.78
M15
G01X10.7105Y-2.7787
M16
G05
T0
M30
